<?xml version="1.0" standalone="no"?>
<!DOCTYPE svg PUBLIC "-//W3C//DTD SVG 20010904//EN"
 "http://www.w3.org/TR/2001/REC-SVG-20010904/DTD/svg10.dtd">
<svg version="1.0" xmlns="http://www.w3.org/2000/svg"
 width="640.000000pt" height="640.000000pt" viewBox="0 0 640.000000 640.000000"
 preserveAspectRatio="xMidYMid meet">
<metadata>
Created by potrace 1.14, written by Peter Selinger 2001-2017
</metadata>
<g transform="translate(0.000000,640.000000) scale(0.100000,-0.100000)"
fill="#000000" stroke="none">
<path d="M0 6200 l0 -200 40 0 40 0 0 -80 c0 -79 0 -80 -25 -80 -14 0 -25 -4
-25 -9 0 -5 11 -18 25 -29 25 -20 33 -42 15 -42 -5 0 -10 -18 -10 -40 0 -22 4
-40 9 -40 6 0 12 -15 14 -32 2 -18 2 0 -1 40 -3 54 -1 72 8 72 10 0 12 26 7
120 l-7 120 30 0 c28 0 30 -3 30 -35 0 -21 8 -43 19 -54 10 -10 21 -25 24 -32
5 -12 7 -11 16 1 15 22 13 40 -4 40 -11 0 -15 11 -15 40 0 51 18 53 22 3 4
-54 31 -56 48 -3 15 47 46 55 56 15 5 -22 12 -25 50 -25 32 0 44 -4 44 -15 0
-10 10 -15 30 -15 21 0 30 5 30 16 0 9 7 14 18 12 13 -2 18 -15 20 -56 3 -50
4 -52 33 -52 27 0 29 2 29 40 0 33 3 40 20 40 17 0 20 -7 20 -40 0 -22 -4 -40
-10 -40 -6 0 -10 -33 -10 -80 0 -64 3 -80 15 -80 11 0 15 11 15 40 l0 40 49 0
c52 0 65 -9 76 -53 4 -15 11 -27 16 -27 14 0 11 -28 -5 -37 -21 -13 -36 -49
-36 -87 0 -35 1 -36 39 -36 l39 0 7 -76 c4 -48 3 -79 -3 -83 -6 -3 -11 -26
-13 -51 -1 -25 -5 -51 -7 -57 -6 -17 -22 -16 -22 1 0 8 -7 16 -15 20 -10 3
-15 19 -15 46 0 22 -4 40 -10 40 -5 0 -10 -13 -10 -30 0 -16 -4 -30 -9 -30 -5
0 -14 14 -21 30 -18 43 -29 37 -23 -12 6 -49 43 -139 50 -121 2 6 -3 26 -12
43 -9 18 -14 35 -10 38 8 9 24 -17 32 -50 3 -16 12 -28 22 -29 11 0 9 -3 -6
-9 -27 -11 -29 -23 -8 -44 8 -8 15 -22 15 -31 0 -19 29 -65 41 -65 15 0 10 22
-8 35 -11 8 -12 14 -5 19 15 9 35 -31 26 -52 -11 -26 -5 -51 31 -127 19 -39
38 -82 44 -97 7 -20 15 -25 30 -21 12 3 21 14 21 25 0 25 35 64 45 49 3 -7 3
-25 0 -43 -5 -22 -10 -27 -16 -17 -5 8 -3 16 4 21 6 4 8 10 5 13 -15 15 -28
-8 -28 -48 -1 -39 -2 -41 -15 -23 -19 25 -29 15 -21 -19 4 -16 13 -25 26 -25
20 0 28 -15 11 -22 -5 -1 4 -29 19 -61 33 -66 53 -127 69 -207 34 -172 44
-213 68 -290 16 -46 29 -76 31 -67 5 27 19 20 46 -25 l26 -43 1 30 c1 17 3 22
6 13 2 -9 13 -20 23 -23 10 -3 25 -19 32 -35 13 -29 28 -40 28 -20 0 6 18 10
39 10 46 0 51 -9 51 -85 0 -54 16 -85 44 -85 7 0 21 -9 31 -20 10 -12 25 -19
33 -18 16 3 101 246 102 289 0 15 6 32 13 38 8 6 20 30 27 53 8 24 19 50 25
58 7 8 15 26 19 40 3 14 13 34 22 45 15 19 17 18 72 -42 32 -35 61 -63 65 -63
4 0 20 -8 35 -19 15 -10 50 -24 77 -31 28 -7 55 -19 61 -26 8 -10 48 -13 165
-12 110 2 160 -2 174 -11 20 -12 20 -12 -1 -8 -12 3 -28 1 -35 -4 -11 -7 -10
-9 4 -9 14 0 17 -9 17 -45 0 -33 -4 -45 -15 -45 -10 0 -15 10 -15 28 0 39 -10
48 -59 55 -25 3 -48 12 -53 21 -5 9 -13 14 -19 11 -5 -4 -42 -6 -83 -6 l-75 0
-24 -42 c-13 -23 -28 -53 -32 -67 -4 -14 -15 -34 -24 -45 -25 -29 -61 -94 -61
-110 0 -8 8 -30 17 -50 15 -31 21 -35 54 -35 24 0 39 5 43 15 3 8 10 15 16 15
5 0 10 -7 10 -15 0 -8 4 -15 9 -15 5 0 23 -14 40 -31 25 -25 31 -39 31 -76 l0
-45 42 34 c38 30 40 33 20 36 -21 3 -22 8 -22 83 0 72 2 79 20 79 11 0 20 7
20 15 0 11 12 15 45 15 31 0 47 -5 51 -15 16 -40 38 -5 66 103 6 23 15 42 18
42 4 0 11 -27 14 -61 6 -49 11 -62 27 -66 20 -5 26 -29 10 -35 -6 -2 -5 -18 2
-40 15 -48 47 -53 47 -8 0 23 -4 30 -20 30 -11 0 -20 5 -20 10 0 6 9 10 20 10
11 0 20 -4 20 -10 0 -5 9 -10 20 -10 11 0 20 -4 20 -10 0 -5 18 -10 40 -10 22
0 40 -3 40 -8 0 -4 13 -13 29 -20 34 -15 45 -51 41 -132 -3 -83 -26 -114 -51
-69 -8 17 -8 23 1 29 9 6 11 23 7 57 -8 70 -25 103 -54 103 -20 0 -23 -5 -23
-40 0 -22 4 -40 8 -40 10 0 42 -98 42 -129 0 -29 -38 -44 -67 -25 -12 8 -24
10 -28 5 -3 -5 1 -11 7 -14 10 -3 11 -9 1 -26 -16 -25 -17 -51 -3 -51 6 0 10
-6 10 -14 0 -8 8 -17 18 -20 9 -3 23 -15 30 -26 10 -17 10 -20 -3 -20 -11 0
-15 -11 -15 -40 0 -22 -4 -40 -9 -40 -12 0 -21 -39 -11 -45 4 -3 11 6 14 20 4
14 11 25 16 25 16 0 21 -19 10 -40 -7 -12 -7 -20 -1 -20 15 0 26 22 23 45 -2
13 0 16 5 8 6 -8 15 -2 31 21 12 18 43 54 68 81 35 36 43 50 33 56 -10 6 -6 8
11 7 21 -3 25 1 23 20 -2 14 1 21 7 17 13 -8 49 35 43 51 -2 6 3 14 11 17 9 4
16 11 16 18 0 6 13 39 28 73 16 33 34 80 40 102 17 60 34 71 80 51 87 -38 331
-64 347 -37 3 6 13 10 22 10 12 0 14 -7 8 -37 -4 -21 -11 -39 -16 -41 -5 -2
-9 -14 -9 -26 0 -13 -13 -56 -30 -96 -16 -40 -30 -83 -30 -95 0 -23 28 -55 48
-55 10 0 31 -60 47 -135 4 -16 22 -69 41 -116 19 -48 34 -92 34 -99 0 -7 8
-34 17 -61 12 -34 24 -49 38 -51 17 -3 20 -9 17 -45 -2 -24 1 -43 6 -43 6 0 8
-26 5 -63 -4 -46 -1 -73 10 -98 24 -51 64 -200 72 -263 4 -31 11 -56 15 -56 4
0 10 -14 12 -30 3 -17 2 -30 -1 -30 -9 0 -7 -87 1 -96 5 -4 8 -2 8 4 0 7 11
12 25 12 25 0 25 -1 19 -49 -12 -89 -1 -102 78 -103 15 0 27 -3 26 -7 0 -3 0
-14 1 -23 1 -25 21 -23 21 2 0 28 25 25 48 -5 12 -15 30 -25 45 -25 14 0 32
-7 41 -15 8 -8 24 -15 36 -15 12 0 19 -4 16 -8 -3 -5 17 -19 44 -32 28 -13 50
-27 50 -32 0 -4 3 -7 8 -7 31 5 52 -3 52 -20 0 -21 22 -33 44 -25 8 3 20 -3
27 -13 14 -19 72 -43 103 -43 9 0 19 -6 22 -14 5 -13 11 -12 42 2 21 9 40 21
43 26 4 4 14 -3 23 -15 14 -20 18 -22 26 -9 5 8 10 20 10 27 0 7 14 9 43 5 38
-5 41 -4 28 11 -7 10 -22 17 -32 17 -11 0 -19 5 -19 11 0 19 70 0 96 -26 16
-16 24 -36 24 -60 0 -19 5 -35 11 -35 15 0 5 -108 -10 -123 -21 -21 -13 -47
14 -47 22 0 24 3 15 19 -7 13 -7 22 0 26 5 3 10 22 10 41 0 35 16 46 26 19 4
-8 12 -15 19 -15 8 0 17 -9 20 -20 5 -16 15 -20 51 -20 33 0 44 4 44 15 0 9 9
26 20 37 17 18 22 20 33 9 9 -11 9 -14 0 -18 -8 -3 -13 -25 -13 -59 0 -35 4
-53 10 -49 6 4 8 11 5 16 -4 5 1 9 9 9 9 0 16 -4 16 -10 0 -6 33 -10 80 -10
l80 0 0 -30 c0 -28 3 -30 35 -30 34 0 35 1 35 41 0 24 -4 38 -10 34 -6 -4 -10
12 -10 39 0 42 -2 46 -25 46 -23 0 -25 -4 -25 -40 l0 -41 -57 3 -58 3 -3 38
c-3 29 -7 37 -23 37 -15 0 -19 7 -19 34 0 32 2 34 38 38 34 3 38 1 35 -17 -2
-11 0 -45 6 -75 9 -53 10 -51 8 38 -1 60 2 95 9 100 6 4 15 23 19 42 4 19 13
43 19 52 9 15 8 21 -4 28 -12 8 -11 12 5 27 11 10 34 38 50 63 17 25 33 47 37
48 22 10 2 35 -44 56 -64 29 -91 58 -108 111 -7 22 -19 49 -26 60 -14 21 -14
22 -14 55 0 26 -16 26 -23 0 -3 -11 -12 -20 -21 -20 -9 0 -13 6 -10 15 4 10
-2 18 -17 24 -29 11 -39 6 -39 -20 0 -10 -7 -19 -15 -19 -11 0 -15 12 -15 49
0 46 18 81 28 53 8 -25 22 -10 22 23 0 19 -4 35 -10 35 -5 0 -10 7 -10 15 0 8
7 15 15 15 8 0 15 -4 15 -9 0 -17 50 -65 51 -50 0 8 6 1 13 -15 11 -25 14 -13
20 110 15 273 15 347 5 412 -31 203 -36 253 -33 374 5 259 7 727 5 1051 -1
180 3 364 8 410 6 45 15 177 21 292 15 285 19 344 30 385 5 19 14 60 21 90 19
89 84 216 121 237 13 7 42 12 66 13 36 0 49 -6 87 -41 24 -22 47 -50 51 -61 3
-11 18 -39 34 -61 22 -34 30 -65 43 -157 31 -220 40 -359 29 -445 -6 -44 -16
-141 -22 -215 -6 -74 -15 -179 -21 -233 -5 -54 -7 -102 -5 -105 6 -9 -32 -337
-44 -382 -21 -82 -31 -239 -28 -445 l3 -220 30 -3 c17 -1 41 4 55 11 22 11 27
23 38 102 7 50 13 111 13 137 -1 26 8 84 19 130 11 46 22 126 25 178 3 52 13
142 21 200 9 58 17 132 20 165 7 108 23 277 38 415 9 74 20 178 26 230 11 101
19 146 47 275 9 44 16 84 15 88 -4 13 67 125 97 156 15 15 53 40 84 55 77 38
110 32 171 -35 25 -28 46 -55 46 -60 0 -6 9 -30 20 -54 31 -68 53 -291 45
-460 -8 -180 -12 -227 -25 -300 -12 -67 -24 -168 -45 -360 -13 -132 -19 -163
-60 -315 -13 -47 -30 -118 -40 -159 -9 -41 -25 -97 -36 -125 -45 -114 -87
-244 -94 -287 -7 -46 -6 -47 26 -58 17 -6 40 -11 49 -11 9 0 25 -9 34 -19 17
-19 17 -19 -3 -14 -26 7 -27 -3 -1 -17 15 -8 23 -6 38 11 l20 20 21 -22 c17
-19 21 -20 21 -6 0 23 15 21 40 -5 l21 -23 -20 -3 c-23 -4 -25 -10 -11 -32 9
-13 13 -11 30 10 11 14 20 29 20 34 0 8 47 56 55 56 2 0 3 -14 3 -30 -1 -36 0
-37 34 -44 35 -6 68 -24 68 -37 0 -11 -13 -5 -45 20 -11 8 -5 0 13 -20 18 -20
32 -45 32 -59 -1 -22 -2 -23 -11 -7 -5 9 -7 22 -3 29 5 8 -1 9 -22 4 -37 -10
-36 -9 -25 -37 4 -13 6 -48 4 -76 -5 -43 -3 -53 10 -53 21 0 25 -30 22 -135
-3 -92 4 -129 16 -85 7 23 7 23 8 -7 1 -17 -4 -33 -9 -35 -7 -2 -6 -37 2 -104
l12 -102 60 -6 c32 -3 67 -6 77 -6 18 0 19 57 19 1920 l0 1920 -1414 0 c-1122
0 -1416 -3 -1420 -12 -5 -10 -7 -10 -12 0 -4 8 -31 12 -84 12 -65 0 -79 -3
-85 -17 -6 -17 -7 -17 -19 0 -12 15 -35 17 -225 17 -149 0 -211 -3 -211 -11 0
-8 -4 -8 -13 -1 -9 8 -438 11 -1465 12 l-1452 0 0 -200z m2375 159 c6 -4 52
-9 103 -11 69 -2 92 -6 92 -17 0 -9 11 -12 38 -10 l37 4 -1 -55 c-2 -90 -2
-90 -26 -90 -23 1 -23 1 -3 16 17 13 18 16 5 24 -9 6 -14 21 -12 38 4 34 -12
42 -78 37 -33 -3 -40 0 -36 11 3 8 1 14 -4 14 -9 0 -14 -14 -11 -32 0 -5 -4
-8 -10 -8 -6 0 -9 6 -6 13 3 8 0 14 -6 15 -55 6 -82 15 -104 32 -14 11 -29 17
-34 14 -5 -3 -9 1 -9 9 0 15 45 12 65 -4z m1350 -8 c-3 -6 -11 -11 -17 -11 -6
0 -6 6 2 15 14 17 26 13 15 -4z m-985 -16 c0 -8 -4 -15 -10 -15 -5 0 -10 7
-10 15 0 8 5 15 10 15 6 0 10 -7 10 -15z m220 0 c0 -8 -4 -15 -10 -15 -5 0 -7
7 -4 15 4 8 8 15 10 15 2 0 4 -7 4 -15z m312 -31 c-24 -17 -39 -14 -27 5 3 6
16 11 28 11 l21 0 -22 -16z m410 -6 c-7 -7 -12 -8 -12 -2 0 14 12 26 19 19 2
-3 -1 -11 -7 -17z m-69 -18 c-3 -11 -7 -20 -9 -20 -2 0 -4 9 -4 20 0 11 4 20
9 20 5 0 7 -9 4 -20z m-493 0 c0 -5 -4 -10 -10 -10 -5 0 -10 5 -10 10 0 6 5
10 10 10 6 0 10 -4 10 -10z m540 -4 c0 -3 -4 -8 -10 -11 -5 -3 -10 -1 -10 4 0
6 5 11 10 11 6 0 10 -2 10 -4z m-30 -26 c0 -5 -5 -10 -11 -10 -5 0 -7 5 -4 10
3 6 8 10 11 10 2 0 4 -4 4 -10z m-1674 -46 c-4 -14 -9 -24 -12 -21 -3 2 -2 17
2 31 3 15 9 25 11 22 3 -3 2 -17 -1 -32z m154 32 c0 -3 -4 -8 -10 -11 -5 -3
-10 -1 -10 4 0 6 5 11 10 11 6 0 10 -2 10 -4z m620 -36 c0 -33 -4 -40 -19 -40
-15 0 -20 9 -23 40 -3 36 -1 40 19 40 20 0 23 -5 23 -40z m88 6 c9 -3 23 -15
30 -26 10 -17 10 -20 -4 -20 -14 0 -16 -8 -12 -51 4 -38 2 -52 -9 -56 -8 -3
-16 -3 -19 0 -3 2 -7 47 -8 98 -2 52 -2 86 1 77 2 -9 12 -19 21 -22z m780 10
c-10 -7 -18 -17 -18 -21 0 -7 -39 -45 -47 -45 -1 0 -3 4 -3 9 0 14 60 71 73
71 7 0 4 -7 -5 -14z m-418 -20 c0 -8 -4 -18 -10 -21 -5 -3 -10 3 -10 14 0 12
5 21 10 21 6 0 10 -6 10 -14z m-400 -52 c0 -9 -5 -14 -12 -12 -18 6 -21 28 -4
28 9 0 16 -7 16 -16z m577 -6 c-3 -8 -6 -5 -6 6 -1 11 2 17 5 13 3 -3 4 -12 1
-19z m155 -34 c-12 -8 -22 -20 -22 -26 0 -5 -11 -23 -25 -40 -14 -16 -25 -25
-25 -20 0 6 -9 8 -20 5 -11 -3 -21 0 -21 6 -5 40 -2 45 25 52 15 4 36 14 45
22 16 15 52 26 60 20 3 -2 -5 -10 -17 -19z m-419 -13 c-3 -12 -11 -17 -19 -14
-11 4 -12 9 -3 19 16 20 28 17 22 -5z m260 -48 c-6 -39 -10 -50 -17 -42 -6 8
6 79 14 79 5 0 6 -17 3 -37z m27 -8 c0 6 5 2 11 -9 9 -14 7 -23 -10 -39 l-21
-21 0 44 c0 33 3 41 10 30 5 -8 10 -10 10 -5z m-410 -36 c0 -4 -7 -9 -15 -13
-9 -3 -15 0 -15 8 0 7 7 13 15 13 8 0 15 -4 15 -8z m440 -25 c0 -3 -11 -19
-25 -36 -29 -34 -32 -30 -10 12 14 26 35 41 35 24z m-1626 -54 c-7 -6 -24 22
-23 40 0 9 6 5 14 -10 7 -14 11 -27 9 -30z m1153 44 c-3 -3 -12 -4 -19 -1 -8
3 -5 6 6 6 11 1 17 -2 13 -5z m-57 -14 c0 -5 -2 -10 -4 -10 -3 0 -8 5 -11 10
-3 6 -1 10 4 10 6 0 11 -4 11 -10z m-793 -47 c-3 -10 -5 -4 -5 12 0 17 2 24 5
18 2 -7 2 -21 0 -30z m-1387 -32 c15 -28 13 -31 -20 -31 -16 0 -30 3 -30 6 0
12 21 44 30 44 5 0 14 -9 20 -19z m78 -43 c-3 -7 -11 -13 -18 -13 -7 0 -15 6
-17 13 -3 7 4 12 17 12 13 0 20 -5 18 -12z m1302 2 c0 -5 -4 -10 -10 -10 -5 0
-10 5 -10 10 0 6 5 10 10 10 6 0 10 -4 10 -10z m-83 -22 c-3 -8 -6 -5 -6 6 -1
11 2 17 5 13 3 -3 4 -12 1 -19z m-1156 -68 c21 -7 39 -19 39 -27 0 -18 -17
-16 -24 3 -4 11 -15 15 -36 12 -34 -5 -47 16 -33 55 7 22 8 22 11 -4 2 -20 12
-29 43 -39z m-101 29 c0 -5 -4 -9 -10 -9 -5 0 -10 7 -10 16 0 8 5 12 10 9 6
-3 10 -10 10 -16z m1325 1 c3 -5 1 -10 -4 -10 -6 0 -11 5 -11 10 0 6 2 10 4
10 3 0 8 -4 11 -10z m39 -6 c3 -8 2 -12 -4 -9 -6 3 -10 10 -10 16 0 14 7 11
14 -7z m23 -69 c-7 -16 -57 -22 -57 -6 0 4 11 6 25 3 19 -3 25 0 25 14 0 9 3
15 6 11 4 -3 4 -13 1 -22z m-1284 -90 c15 1 30 -1 32 -5 5 -9 -84 -4 -93 4 -3
4 0 12 6 18 7 7 13 23 14 38 0 16 3 10 7 -16 5 -36 9 -40 34 -39z m894 51 c-7
-14 -13 -23 -15 -21 -7 6 9 45 18 45 4 0 3 -11 -3 -24z m323 14 c0 -5 -4 -10
-10 -10 -5 0 -10 5 -10 10 0 6 5 10 10 10 6 0 10 -4 10 -10z m75 -10 c-3 -5
-14 -10 -24 -10 -9 0 -22 -5 -29 -12 -7 -7 -12 -9 -12 -6 0 4 7 14 16 22 17
17 59 22 49 6z m-144 -107 c-9 -15 -10 -13 -11 13 0 17 3 34 8 38 11 12 14
-32 3 -51z m178 34 c0 -9 -2 -8 -6 1 -2 6 -10 9 -15 6 -7 -4 -8 -2 -4 5 9 13
26 5 25 -12z m818 -23 c-9 -9 -28 6 -21 18 4 6 10 6 17 -1 6 -6 8 -13 4 -17z
m690 -9 c9 -25 -2 -27 -22 -5 -17 18 -17 20 -1 20 9 0 19 -7 23 -15z m-2827
-75 c0 -22 -4 -40 -10 -40 -5 0 -10 18 -10 40 0 22 5 40 10 40 6 0 10 -18 10
-40z m110 25 c0 -8 -4 -15 -10 -15 -5 0 -10 7 -10 15 0 8 5 15 10 15 6 0 10
-7 10 -15z m2248 -32 c-4 -20 -18 -26 -37 -14 -18 12 -5 31 20 31 14 0 19 -6
17 -17z m-198 -3 c0 -5 -2 -10 -4 -10 -3 0 -8 5 -11 10 -3 6 -1 10 4 10 6 0
11 -4 11 -10z m274 -32 c5 -25 2 -36 -11 -45 -25 -19 -35 -16 -23 6 5 11 10
31 10 45 0 37 16 32 24 -6z m-184 -13 c0 -8 -4 -17 -10 -20 -6 -4 -10 5 -10
20 0 15 4 24 10 20 6 -3 10 -12 10 -20z m-2223 -47 c-2 -13 -4 -3 -4 22 0 25
2 35 4 23 2 -13 2 -33 0 -45z m1202 15 c2 -2 -4 -3 -15 -3 -11 0 -25 9 -32 20
-13 21 -12 21 15 4 15 -10 30 -19 32 -21z m1038 -25 c-3 -7 -5 -2 -5 12 0 14
2 19 5 13 2 -7 2 -19 0 -25z m-81 -36 c-4 -3 -16 5 -28 17 l-21 23 22 -7 c14
-4 21 -2 22 7 1 7 4 2 6 -10 3 -13 2 -26 -1 -30z m-176 21 c0 -15 -24 -73 -31
-73 -3 0 -1 18 4 40 6 22 15 40 19 40 4 0 8 -3 8 -7z m430 -103 c0 -5 -7 -7
-15 -4 -8 4 -15 8 -15 10 0 2 7 4 15 4 8 0 15 -4 15 -10z m-2449 -20 c28 0 39
-4 39 -15 0 -14 -45 -22 -90 -15 -22 3 -23 6 -8 29 7 12 14 17 16 11 2 -5 21
-10 43 -10z m1991 -10 c3 -17 1 -33 -4 -36 -4 -3 -8 11 -8 30 0 44 6 47 12 6z
m-1902 -60 c0 -22 -4 -40 -10 -40 -5 0 -10 18 -10 40 0 22 5 40 10 40 6 0 10
-18 10 -40z m2010 31 c0 -17 -18 -21 -24 -6 -3 9 0 15 9 15 8 0 15 -4 15 -9z
m-96 -36 c3 -8 1 -15 -4 -15 -6 0 -10 7 -10 15 0 8 2 15 4 15 2 0 6 -7 10 -15z
m-2041 -38 c-3 -5 -10 -4 -15 1 -6 6 -7 16 -3 22 6 9 9 9 16 -1 4 -7 5 -17 2
-22z m129 -114 c2 -28 7 -38 20 -37 14 1 15 -2 5 -17 -6 -10 -14 -15 -17 -10
-3 4 -12 10 -20 13 -12 4 -15 16 -12 47 5 51 20 54 24 4z m115 -25 c-2 -13 -4
-3 -4 22 0 25 2 35 4 23 2 -13 2 -33 0 -45z m-197 -28 c0 -5 -2 -10 -4 -10 -3
0 -8 5 -11 10 -3 6 -1 10 4 10 6 0 11 -4 11 -10z m110 -42 c0 -4 -4 -8 -9 -8
-5 0 -18 -8 -27 -17 -17 -17 -18 -17 -11 0 4 10 7 22 7 26 0 4 9 7 20 7 11 0
20 -4 20 -8z m-3 -160 c-3 -7 -5 -2 -5 12 0 14 2 19 5 13 2 -7 2 -19 0 -25z
m2382 -28 c-18 -24 -20 -32 -9 -44 7 -9 22 -14 34 -12 11 3 62 12 111 22 50 9
96 22 102 27 14 10 90 -24 151 -68 18 -13 55 -26 82 -30 28 -4 53 -11 56 -17
3 -5 -12 -31 -35 -58 -23 -27 -41 -56 -41 -64 0 -9 -12 -22 -28 -30 -40 -21
-62 -49 -69 -89 -5 -30 -2 -37 21 -53 15 -9 50 -19 77 -22 l51 -5 -5 -46 c-8
-80 -30 -134 -80 -203 -73 -101 -125 -143 -178 -145 -24 -1 -80 -7 -124 -13
-78 -11 -82 -11 -168 20 -106 39 -166 92 -214 190 -49 101 -67 244 -43 347 19
81 145 252 186 253 6 0 18 7 25 16 14 17 84 52 107 53 8 1 5 -10 -9 -29z
m-2292 -22 c-3 -8 -6 -5 -6 6 -1 11 2 17 5 13 3 -3 4 -12 1 -19z m70 0 c-3 -8
-6 -5 -6 6 -1 11 2 17 5 13 3 -3 4 -12 1 -19z m-104 -80 c7 -27 -2 -45 -14
-27 -11 18 -11 49 0 49 5 0 11 -10 14 -22z m24 -30 c-3 -8 -6 -5 -6 6 -1 11 2
17 5 13 3 -3 4 -12 1 -19z m4 -111 c-8 -8 -11 -5 -11 9 0 27 14 41 18 19 2 -9
-1 -22 -7 -28z m76 -199 c-3 -8 -6 -5 -6 6 -1 11 2 17 5 13 3 -3 4 -12 1 -19z
m1341 -239 c24 -17 41 -34 38 -36 -3 -3 -19 5 -36 17 -17 12 -37 19 -45 16
-10 -4 -15 1 -15 14 0 27 9 25 58 -11z m-58 -64 c0 -14 -2 -25 -4 -25 -2 0 -6
11 -8 25 -3 14 -1 25 3 25 5 0 9 -11 9 -25z m-433 -17 c-3 -8 -6 -5 -6 6 -1
11 2 17 5 13 3 -3 4 -12 1 -19z m589 10 c4 -6 2 -14 -4 -16 -7 -2 -12 -10 -12
-18 0 -28 -17 -13 -18 16 -1 31 20 42 34 18z m-69 -30 c-3 -7 -5 -2 -5 12 0
14 2 19 5 13 2 -7 2 -19 0 -25z m-977 -8 c13 -8 13 -10 -2 -10 -9 0 -20 5 -23
10 -8 13 5 13 25 0z m1047 -32 c-3 -8 -6 -5 -6 6 -1 11 2 17 5 13 3 -3 4 -12
1 -19z m138 -19 c16 -16 -19 -9 -40 7 -19 16 -19 16 5 9 14 -4 29 -11 35 -16z
m0 -29 c3 -6 -4 -10 -17 -10 -18 0 -20 2 -8 10 19 12 18 12 25 0z m152 -46
c-3 -3 -12 -4 -19 -1 -8 3 -5 6 6 6 11 1 17 -2 13 -5z m3046 -182 c-3 -12 -10
-22 -15 -22 -5 0 -7 3 -5 8 2 4 7 16 11 26 9 25 17 16 9 -12z m-3223 -32 c0
-5 -7 -7 -15 -4 -8 4 -15 8 -15 10 0 2 7 4 15 4 8 0 15 -4 15 -10z m-55 -80
c-3 -5 -13 -10 -21 -10 -8 0 -14 5 -14 10 0 6 9 10 21 10 11 0 17 -4 14 -10z
m-35 -36 c0 -22 37 -17 43 6 3 13 10 18 21 14 21 -8 20 -21 -3 -29 -13 -4 -20
-19 -25 -55 -7 -56 -26 -66 -44 -25 -15 33 -15 52 1 59 10 5 10 7 0 12 -7 3
-13 15 -13 25 0 11 5 17 10 14 6 -3 10 -13 10 -21z m3257 -6 c-3 -8 -6 -5 -6
6 -1 11 2 17 5 13 3 -3 4 -12 1 -19z m-990 -20 c-3 -8 -6 -5 -6 6 -1 11 2 17
5 13 3 -3 4 -12 1 -19z m983 -43 c0 -8 -4 -15 -10 -15 -5 0 -10 7 -10 15 0 8
5 15 10 15 6 0 10 -7 10 -15z m-3240 -65 c0 -18 -19 -11 -30 11 -11 19 -10 20
9 9 12 -6 21 -15 21 -20z m1801 -60 c16 0 19 -7 19 -40 0 -36 -2 -40 -25 -40
-25 0 -25 1 -23 83 1 45 3 63 5 40 3 -35 8 -43 24 -43z m184 70 c3 -5 1 -10
-4 -10 -6 0 -11 5 -11 10 0 6 2 10 4 10 3 0 8 -4 11 -10z m195 0 c0 -5 -4 -10
-10 -10 -5 0 -10 5 -10 10 0 6 5 10 10 10 6 0 10 -4 10 -10z m-83 -52 c-2 -13
-4 -5 -4 17 -1 22 1 32 4 23 2 -10 2 -28 0 -40z m-232 2 c3 -11 11 -20 16 -20
5 0 9 -33 9 -72 l-1 -73 -19 35 c-11 19 -19 52 -20 72 0 20 -5 38 -11 40 -11
4 -2 38 11 38 5 0 12 -9 15 -20z m185 -10 c0 -5 -4 -10 -10 -10 -5 0 -10 5
-10 10 0 6 5 10 10 10 6 0 10 -4 10 -10z m-320 -30 c0 -11 -2 -20 -4 -20 -2 0
-6 9 -9 20 -3 11 -1 20 4 20 5 0 9 -9 9 -20z m-68 -76 c-6 -35 -12 -29 -12 14
0 23 3 32 9 24 4 -7 6 -24 3 -38z m-135 -46 c-2 -13 -4 -5 -4 17 -1 22 1 32 4
23 2 -10 2 -28 0 -40z m90 0 c-2 -13 -4 -5 -4 17 -1 22 1 32 4 23 2 -10 2 -28
0 -40z m87 -3 c4 -11 -1 -15 -19 -15 -16 0 -25 6 -25 15 0 8 9 15 19 15 10 0
21 -7 25 -15z m-134 -55 c0 -11 -4 -20 -9 -20 -14 0 -23 18 -16 30 10 17 25
11 25 -10z m752 -151 c3 -17 0 -71 -5 -120 -9 -72 -14 -89 -27 -89 -19 0 -56
72 -46 89 4 6 15 11 24 11 22 0 44 68 36 109 -4 18 -2 31 4 31 5 0 12 -14 14
-31z m-552 -69 c0 -33 -4 -60 -10 -60 -5 0 -10 -18 -10 -40 0 -36 -2 -40 -25
-40 -22 0 -25 4 -25 40 0 29 4 40 15 40 11 0 15 12 15 48 0 44 12 72 32 72 4
0 8 -27 8 -60z m1877 28 c-3 -8 -6 -5 -6 6 -1 11 2 17 5 13 3 -3 4 -12 1 -19z
m-1374 -2 c9 0 17 -4 17 -9 0 -5 -10 -7 -22 -3 -13 3 -31 6 -40 6 -10 0 -18 5
-18 11 0 6 9 8 23 3 12 -4 30 -8 40 -8z m-1008 -5 c3 -5 1 -12 -5 -16 -5 -3
-10 1 -10 9 0 18 6 21 15 7z m232 -63 c-2 -13 -4 -3 -4 22 0 25 2 35 4 23 2
-13 2 -33 0 -45z m63 22 c0 -22 -4 -40 -10 -40 -5 0 -10 18 -10 40 0 22 5 40
10 40 6 0 10 -18 10 -40z m250 -80 c0 -22 -4 -40 -10 -40 -5 0 -10 18 -10 40
0 22 5 40 10 40 6 0 10 -18 10 -40z m160 -54 c0 -9 -14 -15 -40 -18 -33 -3
-40 0 -40 14 0 14 8 18 40 18 28 0 40 -4 40 -14z m99 -4 c6 -12 4 -23 -9 -39
l-18 -23 -4 40 c-4 43 13 55 31 22z m245 -17 c3 -9 0 -15 -9 -15 -9 0 -12 6
-9 15 4 8 7 15 9 15 2 0 5 -7 9 -15z m-809 -35 c3 -5 1 -10 -4 -10 -6 0 -11 5
-11 10 0 6 2 10 4 10 3 0 8 -4 11 -10z m-75 -14 c0 -3 -4 -8 -10 -11 -5 -3
-10 -1 -10 4 0 6 5 11 10 11 6 0 10 -2 10 -4z m297 -58 c-2 -13 -4 -3 -4 22 0
25 2 35 4 23 2 -13 2 -33 0 -45z m582 30 c0 -18 -4 -55 -9 -83 -7 -47 -7 -45
-9 33 0 49 3 82 9 82 6 0 10 -15 9 -32z m-39 -57 c0 -20 -13 -41 -21 -35 -15
9 -10 44 6 44 8 0 15 -4 15 -9z m-156 -56 c4 -10 -1 -15 -14 -15 -20 0 -26 11
-13 23 10 11 20 8 27 -8z m-260 -27 c15 -48 16 -68 2 -68 -8 0 -18 9 -21 20
-3 11 -11 20 -16 20 -5 0 -9 9 -9 20 0 22 38 29 44 8z m169 -20 c-3 -18 -10
-37 -14 -42 -13 -15 -11 -86 3 -86 6 0 4 -7 -5 -18 -10 -10 -17 -33 -17 -50 0
-17 -4 -34 -10 -37 -5 -3 -10 -17 -10 -31 0 -13 -4 -24 -9 -24 -5 0 -18 -3
-28 -6 -11 -4 -14 -3 -7 3 6 4 14 28 17 53 4 25 10 60 13 78 8 40 -9 43 -42 6
-16 -16 -24 -37 -24 -60 0 -18 -4 -34 -9 -34 -5 0 -13 -9 -16 -20 -3 -11 -13
-20 -20 -20 -11 0 -13 8 -8 33 14 66 10 80 -24 90 -33 10 -46 37 -19 37 10 0
16 14 18 43 l3 42 14 -27 c8 -16 17 -28 21 -28 4 0 15 18 26 40 17 36 23 40
56 40 34 0 68 20 68 41 0 5 7 9 15 9 11 0 13 -8 8 -32z m93 -70 c-9 -12 -16
-32 -16 -44 0 -11 -9 -29 -20 -39 -11 -10 -20 -26 -20 -37 0 -10 -5 -18 -10
-18 -14 0 -1 79 16 105 8 11 14 27 14 37 0 13 8 18 26 18 24 0 24 -1 10 -22z
m-976 -73 c0 -8 -4 -15 -10 -15 -5 0 -10 7 -10 15 0 8 5 15 10 15 6 0 10 -7
10 -15z m1096 2 c-16 -12 -16 -14 -2 -27 14 -11 19 -10 30 5 7 10 18 15 24 11
6 -3 13 2 15 11 3 13 5 14 6 3 2 -34 -17 -45 -76 -43 -62 3 -99 -10 -75 -26
11 -6 10 -10 -3 -15 -12 -4 -15 -13 -11 -30 3 -14 2 -28 -4 -31 -6 -3 -10 4
-10 18 0 16 -7 26 -20 30 -20 5 -28 27 -10 27 6 0 10 9 10 20 0 14 10 22 38
30 20 5 44 14 52 20 8 5 24 10 34 10 19 0 19 -1 2 -13z m-476 -69 c-1 -30 -29
-98 -30 -72 0 7 -9 14 -20 17 -11 3 -20 10 -20 17 0 7 9 14 20 17 13 3 20 14
20 29 0 15 6 24 15 24 10 0 15 -10 15 -32z m50 -14 c0 -8 -4 -12 -10 -9 -5 3
-10 10 -10 16 0 5 5 9 10 9 6 0 10 -7 10 -16z m240 -14 c0 -5 9 -10 20 -10 11
0 20 -7 20 -15 0 -18 38 -35 60 -27 9 3 7 -4 -7 -18 -20 -21 -23 -22 -38 -6
-9 9 -25 16 -36 16 -15 0 -19 -7 -19 -35 0 -22 -5 -35 -13 -35 -12 0 -28 -24
-43 -62 -10 -27 -19 -22 -33 18 -9 26 -10 39 -2 47 8 8 11 4 11 -13 1 -23 2
-24 14 -7 7 9 18 17 25 17 7 0 11 19 11 48 0 55 9 92 21 92 5 0 9 -4 9 -10z
m163 -6 c-8 -22 -33 -25 -33 -4 0 12 6 18 19 17 10 0 17 -7 14 -13z m-1126
-36 c-3 -7 -5 -2 -5 12 0 14 2 19 5 13 2 -7 2 -19 0 -25z m63 2 c0 -5 -4 -10
-10 -10 -5 0 -10 5 -10 10 0 6 5 10 10 10 6 0 10 -4 10 -10z m517 -6 c-3 -3
-12 -4 -19 -1 -8 3 -5 6 6 6 11 1 17 -2 13 -5z m-417 -19 c0 -8 -4 -15 -10
-15 -5 0 -10 7 -10 15 0 8 5 15 10 15 6 0 10 -7 10 -15z m840 -47 c0 -17 -20
-47 -20 -31 0 6 -3 18 -6 27 -4 11 -1 16 10 16 9 0 16 -6 16 -12z m260 8 c0
-3 -4 -8 -10 -11 -5 -3 -10 -1 -10 4 0 6 5 11 10 11 6 0 10 -2 10 -4z m-813
-88 c-2 -13 -4 -3 -4 22 0 25 2 35 4 23 2 -13 2 -33 0 -45z m731 50 c-6 -18
-28 -21 -28 -4 0 9 7 16 16 16 9 0 14 -5 12 -12z m42 -35 c-11 -21 -20 -43
-20 -50 0 -7 -4 -13 -9 -13 -5 0 -14 -15 -20 -32 -9 -25 -14 -29 -20 -19 -5 7
-14 10 -20 7 -7 -5 -11 4 -11 23 0 24 -4 31 -20 31 -19 0 -25 -15 -21 -48 2
-9 -9 -12 -36 -10 -37 3 -38 4 -41 45 -1 23 1 44 6 47 5 3 8 -6 6 -19 -3 -28
16 -34 35 -11 9 11 9 15 -1 20 -7 3 7 4 31 1 52 -7 61 -11 61 -31 0 -12 4 -12
20 -4 12 6 20 21 20 35 0 14 6 25 13 25 7 0 18 9 25 20 21 35 23 22 2 -17z
m-160 3 c0 -2 -7 -7 -16 -10 -8 -3 -12 -2 -9 4 6 10 25 14 25 6z m60 -16 c0
-5 -7 -10 -16 -10 -8 0 -12 5 -9 10 3 6 10 10 16 10 5 0 9 -4 9 -10z m-136
-79 c4 -5 2 -21 -4 -36 -10 -25 -11 -26 -27 -9 -13 13 -14 19 -5 22 6 2 12 10
12 18 0 16 16 19 24 5z m-342 -73 c2 -20 0 -34 -4 -32 -4 3 -8 24 -7 47 1 47
6 41 11 -15z m508 27 c0 -13 -25 -55 -32 -55 -6 0 -7 6 -4 13 3 6 9 20 12 30
6 15 24 25 24 12z m-154 -69 c-9 -15 -21 -26 -26 -26 -16 0 -12 28 7 50 25 28
41 8 19 -24z m294 24 c0 -5 -5 -10 -11 -10 -5 0 -7 5 -4 10 3 6 8 10 11 10 2
0 4 -4 4 -10z m-50 -40 c0 -5 -7 -10 -16 -10 -8 0 -12 5 -9 10 3 6 10 10 16
10 5 0 9 -4 9 -10z m-120 -115 c0 -11 -11 -15 -40 -15 -29 0 -40 4 -40 15 0
11 11 15 40 15 29 0 40 -4 40 -15z"/>
<path d="M2625 6230 c3 -5 8 -10 11 -10 2 0 4 5 4 10 0 6 -5 10 -11 10 -5 0
-7 -4 -4 -10z"/>
<path d="M3443 6065 c-9 -25 4 -29 17 -6 7 15 7 21 0 21 -6 0 -13 -7 -17 -15z"/>
<path d="M3375 6010 c3 -5 8 -10 11 -10 2 0 4 5 4 10 0 6 -5 10 -11 10 -5 0
-7 -4 -4 -10z"/>
<path d="M3423 4638 c-32 -39 -21 -138 18 -166 53 -38 80 -32 118 24 l24 35
-21 37 c-11 20 -31 45 -44 54 -32 25 -82 33 -95 16z"/>
<path d="M340 5880 c0 -29 4 -40 15 -40 11 0 15 11 15 40 0 29 -4 40 -15 40
-11 0 -15 -11 -15 -40z"/>
<path d="M292 5828 c6 -18 28 -21 28 -4 0 9 -7 16 -16 16 -9 0 -14 -5 -12 -12z"/>
<path d="M240 5775 c0 -15 65 -33 77 -21 4 3 -5 6 -19 6 -14 0 -28 7 -32 15
-7 19 -26 20 -26 0z"/>
<path d="M481 5738 c0 -13 4 -32 9 -43 7 -15 9 -10 9 23 1 23 -3 42 -9 42 -5
0 -10 -10 -9 -22z"/>
<path d="M253 5729 c14 -8 16 -14 6 -25 -13 -15 -9 -17 16 -8 14 6 14 8 -1 25
-9 11 -22 19 -28 19 -6 0 -3 -5 7 -11z"/>
<path d="M305 5730 c-3 -5 -1 -10 4 -10 6 0 11 5 11 10 0 6 -2 10 -4 10 -3 0
-8 -4 -11 -10z"/>
<path d="M305 5700 c3 -5 8 -10 11 -10 2 0 4 5 4 10 0 6 -5 10 -11 10 -5 0 -7
-4 -4 -10z"/>
<path d="M365 5684 l-30 -13 30 6 c32 6 41 11 34 17 -2 2 -17 -2 -34 -10z"/>
<path d="M157 5633 c-2 -5 -4 -33 -5 -63 0 -48 0 -50 7 -20 4 19 11 45 15 57
6 20 -8 42 -17 26z"/>
<path d="M400 5630 c0 -5 7 -10 15 -10 8 0 15 -4 15 -10 0 -5 7 -10 16 -10 12
0 10 5 -9 20 -28 22 -37 25 -37 10z"/>
<path d="M3 5560 c0 -25 2 -35 4 -22 2 12 2 32 0 45 -2 12 -4 2 -4 -23z"/>
<path d="M77 5593 c-11 -10 -8 -73 3 -73 6 0 10 18 10 40 0 41 -2 45 -13 33z"/>
<path d="M590 5560 c0 -30 4 -40 16 -40 11 0 14 5 10 16 -3 9 -6 27 -6 40 0
13 -4 24 -10 24 -5 0 -10 -18 -10 -40z"/>
<path d="M500 5553 c0 -4 8 -17 16 -28 15 -20 16 -20 12 4 -3 22 -28 44 -28
24z"/>
<path d="M670 5480 c0 -22 5 -40 10 -40 6 0 10 18 10 40 0 22 -4 40 -10 40 -5
0 -10 -18 -10 -40z"/>
<path d="M77 5338 c8 -57 13 -61 13 -10 0 22 -4 43 -9 46 -5 4 -7 -12 -4 -36z"/>
<path d="M151 5303 c-1 -46 3 -73 11 -75 7 -3 9 -12 5 -22 -4 -9 -11 -14 -17
-11 -6 4 -10 -23 -10 -74 0 -76 13 -109 23 -58 l4 22 2 -22 c0 -13 5 -23 10
-23 6 0 7 16 4 36 -5 29 -3 36 8 32 8 -2 15 -19 17 -36 2 -20 9 -32 18 -32 16
0 18 22 5 48 -5 9 -12 26 -16 37 -5 16 -8 17 -15 5 -7 -11 -11 -11 -24 -1 -20
17 -21 50 -1 57 12 5 14 17 8 63 -3 31 -12 72 -19 91 -12 34 -13 33 -13 -37z"/>
<path d="M83 5240 c0 -25 2 -35 4 -22 2 12 2 32 0 45 -2 12 -4 2 -4 -23z"/>
<path d="M32 5160 c2 -26 -1 -40 -8 -40 -12 0 -30 -137 -19 -148 4 -4 21 -7
38 -7 29 0 32 -3 35 -32 3 -32 2 -33 -37 -33 -23 0 -41 -4 -41 -10 0 -5 11
-10 24 -10 13 0 26 -7 30 -15 9 -24 24 -17 31 15 8 34 -13 220 -26 235 -5 5
-9 26 -9 47 0 21 -5 38 -11 38 -7 0 -10 -15 -7 -40z"/>
<path d="M242 5000 c0 -14 2 -19 5 -12 2 6 2 18 0 25 -3 6 -5 1 -5 -13z"/>
<path d="M154 4903 c4 -32 10 -85 13 -118 8 -86 16 -84 11 3 -4 54 -1 77 8 87
8 7 14 30 14 49 0 32 -3 36 -26 36 -27 0 -27 0 -20 -57z"/>
<path d="M251 4918 c1 -18 -2 -52 -6 -76 -5 -28 -3 -57 5 -83 22 -66 33 -47
27 44 -6 75 -6 80 8 57 20 -35 19 -4 -2 47 -21 51 -33 55 -32 11z"/>
<path d="M1 4655 c0 -147 2 -175 14 -175 11 0 15 -12 15 -40 0 -22 5 -40 10
-40 6 0 10 18 10 40 l0 40 55 0 55 0 0 -145 c0 -86 -4 -145 -10 -145 -5 0 -19
10 -30 23 -18 18 -19 23 -6 25 22 5 23 82 1 82 -11 0 -15 11 -15 40 0 33 -4
40 -19 40 -15 0 -20 -9 -23 -47 -3 -33 0 -52 9 -59 8 -7 13 -33 13 -73 l0 -61
-39 0 -39 0 -1 -594 c-2 -479 1 -595 11 -599 10 -4 10 -6 1 -6 -19 -1 -19
-1837 0 -1844 9 -4 9 -6 0 -6 -10 -1 -13 -119 -13 -556 l0 -555 2520 0 c1641
0 2520 3 2520 10 0 5 -12 12 -27 16 -52 11 -59 14 -45 23 11 6 55 7 95 2 4 -1
3 -10 -2 -20 -13 -23 2 -31 55 -31 24 0 32 4 28 14 -3 9 4 15 23 19 29 5 63
-7 63 -23 0 -17 28 -11 35 8 7 16 8 15 15 -3 5 -11 9 -14 9 -7 1 14 61 17 61
2 0 -12 67 -13 74 -1 4 5 22 5 43 0 21 -5 239 -9 486 -9 l447 0 0 51 0 52 -57
-7 c-138 -14 -365 -26 -376 -19 -7 4 -149 8 -317 9 -297 0 -592 10 -657 20
-55 8 -43 37 35 82 312 181 399 209 559 178 63 -12 135 -16 258 -15 177 1 206
-4 293 -50 59 -31 249 -121 256 -121 3 0 6 174 6 386 0 364 -1 386 -17 379
-38 -16 -50 -16 -62 -1 -20 24 11 50 49 42 l30 -5 0 84 0 85 -337 0 c-186 0
-459 2 -608 5 -148 3 -319 4 -380 3 -60 -2 -182 -2 -270 0 -142 3 -162 6 -175
22 -8 10 -28 22 -45 25 -23 5 -26 4 -15 -4 17 -12 12 -14 -47 -11 -25 1 -43
-3 -43 -9 0 -6 9 -11 19 -11 11 0 23 -5 26 -10 8 -12 -214 -14 -233 -1 -11 7
-10 10 3 15 9 3 25 6 36 6 10 0 19 4 19 9 0 6 -24 7 -57 4 -37 -4 -54 -3 -50
4 4 6 -3 8 -18 5 -15 -2 -25 0 -25 7 0 6 -12 11 -27 10 -16 -1 -43 1 -60 5
-27 6 -33 4 -33 -8 0 -9 -8 -16 -17 -16 -13 0 -14 -3 -5 -12 10 -10 17 -10 32
0 28 17 40 15 40 -7 0 -24 -72 -36 -109 -17 -24 13 -24 16 -26 134 -2 116 5
163 18 129 4 -10 13 -13 27 -10 13 4 33 -3 51 -16 16 -12 34 -19 39 -16 14 9
12 45 -2 45 -9 0 -8 4 2 10 11 8 7 9 -14 4 -19 -5 -27 -3 -23 3 8 13 -7 25
-53 43 -19 8 -37 16 -40 20 -3 3 -31 18 -62 34 -31 15 -62 34 -69 42 -14 17
-41 18 -58 1 -10 -10 -11 -7 -6 15 6 23 2 29 -25 43 -40 21 -47 14 -27 -27 9
-18 23 -50 32 -71 12 -31 18 -37 34 -32 17 5 20 0 26 -42 3 -26 12 -61 20 -76
8 -16 15 -38 15 -49 0 -25 38 -80 51 -73 5 4 9 0 9 -8 0 -14 29 -78 39 -87 19
-17 97 -255 105 -323 4 -31 11 -57 15 -57 9 0 39 -103 51 -172 4 -29 14 -66
20 -83 24 -60 70 -221 70 -244 0 -23 -1 -23 -72 -17 -40 3 -80 6 -88 7 -20 1
-147 33 -235 59 -38 11 -83 23 -100 26 -16 4 -49 12 -73 20 -23 8 -61 14 -83
14 -36 0 -40 3 -46 30 -7 38 -78 103 -193 178 -47 30 -102 66 -124 81 -21 14
-56 37 -77 51 -21 14 -63 42 -93 64 -30 21 -59 35 -65 31 -8 -5 -10 -58 -5
-183 6 -171 5 -181 -20 -266 -42 -147 -79 -180 -168 -153 -75 23 -101 114 -98
350 1 89 -1 223 -6 297 l-7 135 -33 30 c-92 86 -287 251 -311 264 -22 11 -24
8 -56 -61 -18 -40 -41 -100 -52 -133 l-19 -61 -155 0 c-86 0 -219 -1 -296 -3
-304 -4 -636 5 -645 18 -6 11 -10 10 -17 -4 -8 -14 -24 -16 -124 -12 -146 7
-216 14 -236 26 -11 5 -25 5 -40 -2 -18 -8 -27 -7 -41 6 -14 13 -39 17 -103
17 -51 0 -79 4 -70 9 10 6 11 13 2 29 -17 32 -13 52 9 52 13 0 20 7 20 20 0
13 -7 20 -20 20 -23 0 -27 25 -6 46 8 7 17 19 19 26 4 10 8 9 16 -2 15 -21 14
-30 -3 -30 -9 0 -12 -7 -9 -20 3 -11 13 -20 23 -20 10 0 20 -5 22 -12 2 -6 10
3 17 20 12 27 17 31 54 30 23 0 43 4 44 8 2 5 13 25 24 44 20 32 22 33 35 15
19 -25 18 -65 -1 -65 -8 0 -15 -9 -15 -20 0 -24 3 -24 42 -4 25 13 32 14 40 2
7 -10 11 -9 22 5 17 22 56 15 56 -10 0 -13 3 -13 15 -3 19 16 19 49 0 56 -8 4
-15 17 -15 30 0 29 35 33 57 6 10 -12 16 -14 19 -4 3 6 10 10 15 6 5 -3 9 0 9
5 0 6 -4 11 -10 11 -5 0 -10 5 -10 10 0 6 7 6 19 -1 22 -14 49 -6 58 17 9 25
-15 33 -88 27 -53 -5 -74 -2 -93 11 -31 20 -85 21 -100 2 -19 -24 -55 -30 -63
-10 -4 10 0 20 10 26 10 5 17 16 17 24 0 13 11 15 58 12 51 -3 58 -1 67 20 12
27 35 29 35 2 0 -17 7 -20 40 -20 33 0 40 3 40 20 0 21 24 28 35 10 8 -13 55
-13 55 0 0 6 11 10 25 10 20 0 25 -5 25 -24 0 -13 6 -26 13 -29 10 -4 13 2 9
21 -7 39 -19 50 -52 47 -16 -1 -28 1 -25 5 7 11 51 6 69 -9 22 -18 29 -10 20
25 -7 26 -8 26 -15 9 -8 -17 -8 -17 -6 5 4 44 33 36 48 -14 7 -25 20 -48 27
-51 15 -5 14 10 -4 74 -6 21 -4 22 16 16 12 -4 46 -4 76 0 l54 6 0 40 c0 28 4
39 15 39 10 0 15 10 15 28 1 26 1 26 15 8 19 -25 19 -36 0 -36 -9 0 -15 -9
-15 -25 0 -22 4 -25 38 -25 39 0 62 14 62 37 0 7 -11 13 -25 13 -29 0 -31 8
-10 36 14 19 14 19 15 -2 0 -20 3 -21 38 -12 36 9 71 43 57 56 -3 4 -10 0 -14
-7 -12 -19 -32 -4 -24 17 4 9 18 27 32 39 26 23 26 30 1 33 -41 6 -50 0 -44
-28 4 -19 1 -32 -10 -41 -13 -11 -16 -9 -22 13 -5 23 -11 26 -50 26 l-44 0 0
45 c0 44 15 60 26 30 6 -16 31 -19 58 -9 28 11 17 24 -18 24 -37 0 -46 12 -46
62 0 21 -9 38 -27 54 l-27 23 21 21 c12 11 36 20 53 20 41 0 77 36 61 61 -10
17 -8 19 19 19 28 0 29 -2 18 -20 -11 -17 -10 -22 2 -30 11 -7 16 -5 18 8 2 9
7 21 12 25 4 5 6 16 3 25 -3 13 -13 16 -48 14 l-44 -4 -7 71 c-6 68 -8 71 -33
72 -25 1 -25 1 7 15 41 18 41 30 0 48 -20 9 -26 15 -15 15 9 1 17 8 17 16 0 8
6 16 13 17 6 0 17 2 23 2 15 2 44 26 44 37 0 5 -7 9 -15 9 -10 0 -15 11 -16
38 l-2 37 -7 -40 -7 -40 -2 43 -1 42 -144 0 -143 0 -13 -120 c-11 -105 -15
-120 -31 -120 -15 0 -19 -8 -19 -40 0 -22 -4 -40 -10 -40 -5 0 -10 18 -10 40
0 29 -4 40 -15 40 -10 0 -15 10 -15 26 0 23 2 25 16 13 26 -22 43 12 40 79 -2
32 -4 72 -5 90 -2 46 -21 40 -21 -8 0 -29 -4 -40 -15 -40 -11 0 -15 -12 -15
-50 0 -50 -22 -110 -40 -110 -5 0 -16 12 -24 28 l-15 27 -1 -27 c0 -27 -2 -28
-55 -28 -42 0 -55 -3 -55 -15 0 -8 -4 -15 -9 -15 -5 0 -16 -3 -25 -6 -12 -4
-16 0 -16 15 0 17 -6 21 -30 21 -28 0 -30 2 -30 40 0 36 -2 40 -25 40 -14 0
-25 5 -25 10 0 11 8 13 68 10 41 -1 42 -1 42 29 0 21 -5 31 -15 31 -11 0 -15
11 -15 40 0 29 4 40 15 40 8 0 15 -7 15 -16 0 -17 22 -14 28 4 2 7 -3 12 -12
12 -12 0 -16 10 -16 40 0 33 -3 40 -20 40 -25 0 -26 14 -1 39 10 10 21 25 24
32 3 8 6 -5 6 -28 1 -41 2 -43 31 -43 28 0 30 2 30 40 0 38 2 40 30 40 28 0
30 2 30 40 0 29 -4 40 -15 40 -10 0 -15 11 -15 35 0 19 -4 35 -10 35 -5 0 -10
3 -10 8 0 4 18 6 40 4 34 -4 40 -1 40 15 0 16 -6 19 -30 15 -17 -2 -30 0 -30
6 0 6 -22 34 -49 62 l-50 52 -3 -29 c-3 -24 -8 -29 -43 -34 l-40 -6 43 -2 c27
0 42 3 42 11 0 9 3 9 12 0 7 -7 22 -12 35 -12 25 0 29 -14 13 -54 -12 -33 -60
-38 -60 -6 0 17 -7 20 -40 20 -29 0 -40 4 -40 15 0 11 -11 15 -40 15 l-40 0 0
-115 c0 -108 -1 -115 -20 -115 -18 0 -20 7 -20 80 l0 80 -59 0 -58 0 -7 61
c-3 34 -6 88 -6 120 l0 59 -35 0 c-24 0 -35 -5 -35 -15 0 -11 -11 -15 -40 -15
-36 0 -40 -2 -40 -25 0 -16 -6 -25 -15 -25 -8 0 -15 -7 -15 -15 0 -8 -4 -15
-9 -15 -5 0 -16 -3 -25 -6 -11 -4 -16 0 -16 14 0 11 5 22 12 24 7 3 8 10 4 17
-6 9 -14 0 -27 -28 -20 -45 -33 -51 -49 -22 -14 27 -13 31 10 31 11 0 20 4 20
9 0 16 77 62 93 55 10 -3 17 -1 17 5 0 6 17 11 40 11 29 0 40 4 40 15 0 9 7
18 15 21 8 4 15 14 15 24 0 10 3 20 7 22 5 2 15 17 23 33 13 25 24 31 60 36
25 3 35 7 23 7 -20 2 -23 7 -23 47 0 31 -5 47 -15 51 -23 9 -45 -21 -45 -60 0
-22 -5 -36 -12 -36 -7 0 -22 -20 -33 -45 -18 -42 -22 -45 -57 -45 -37 0 -38
-1 -38 -35 0 -24 -5 -35 -15 -35 -11 0 -15 11 -15 40 0 29 4 40 15 40 12 0 15
16 15 85 l0 85 40 0 40 0 0 -45 c0 -25 4 -45 9 -45 16 0 21 115 9 218 -12 102
-28 138 -28 62 0 -32 -4 -40 -18 -40 -16 0 -20 13 -29 88 -9 83 -4 122 17 122
5 0 16 -12 23 -26 9 -17 17 -23 21 -15 11 17 26 13 26 -8 0 -11 11 -28 24 -38
20 -17 23 -26 20 -73 -2 -37 -1 -47 4 -30 l8 25 13 -23 c18 -33 55 -26 59 11
3 24 7 27 43 27 21 0 39 5 39 10 0 6 30 10 71 10 l71 0 -4 -52 c-2 -31 1 -53
8 -55 7 -2 10 18 9 62 -1 37 2 65 8 65 6 0 5 5 -1 13 -12 14 -4 31 18 40 12 4
11 6 -2 6 -10 1 -18 5 -18 11 0 5 5 9 11 7 6 -1 14 4 16 11 3 6 -2 12 -11 12
-19 0 -21 16 -3 24 10 5 10 7 0 12 -15 7 -17 44 -3 44 6 0 5 8 -2 20 -7 11
-23 20 -35 20 -22 0 -23 -4 -23 -80 l0 -80 -30 0 -31 0 2 93 c0 50 -2 104 -6
120 -5 17 -3 27 4 27 6 0 11 17 11 40 0 25 5 40 13 40 9 0 11 -20 9 -80 -4
-68 -2 -80 12 -80 18 0 22 15 6 25 -14 8 -13 55 1 55 8 0 8 4 0 14 -7 8 -11
27 -9 43 2 23 -1 29 -20 31 -17 3 -21 8 -16 26 3 15 -1 29 -13 41 -10 10 -23
30 -30 44 -10 24 -11 21 -11 -29 0 -30 3 -81 7 -112 4 -32 3 -58 -1 -58 -4 0
-8 18 -8 40 0 29 -4 40 -15 40 -12 0 -15 15 -15 75 0 41 1 77 3 79 1 2 -6 13
-16 24 -18 20 -18 20 2 15 20 -5 21 -4 9 23 -7 16 -20 40 -30 53 -10 13 -18
28 -18 33 0 5 -10 22 -22 38 -16 22 -25 27 -34 19 -10 -8 -15 -5 -20 15 -10
39 -24 31 -24 -14 l0 -40 -72 0 -71 0 5 118 c2 64 3 100 1 80 -4 -37 -5 -38
-44 -38 l-39 0 -1 78 c-1 42 0 85 1 95 1 14 -4 18 -22 15 -14 -2 -23 -9 -22
-20 1 -10 -1 -17 -5 -16 -24 3 -31 -6 -31 -37 0 -34 -1 -35 -40 -35 -40 0 -40
0 -40 39 0 35 -3 39 -21 36 -17 -3 -19 -2 -9 10 26 31 -9 185 -42 185 -4 0 -8
-79 -7 -175z m537 -332 c12 -11 18 -38 20 -90 l4 -73 -47 0 -48 0 7 61 c5 50
30 119 44 119 2 0 11 -8 20 -17z m-248 -43 c0 -22 -4 -40 -10 -40 -5 0 -10 18
-10 40 0 22 5 40 10 40 6 0 10 -18 10 -40z m120 -80 c0 -38 -2 -40 -30 -40
-28 0 -30 -2 -30 -40 0 -28 -4 -40 -14 -40 -10 0 -16 -14 -19 -42 -2 -24 -4
-6 -5 40 -2 62 1 82 11 82 7 0 23 11 35 25 12 14 26 25 32 25 5 0 10 7 10 15
0 8 2 15 5 15 3 0 5 -18 5 -40z m-162 -122 c-1 -46 -3 -64 -5 -40 -2 23 -9 42
-15 42 -7 0 -9 -18 -6 -49 7 -73 -20 -108 -44 -56 -6 13 -14 23 -17 21 -3 -2
-4 16 -2 40 2 35 0 44 -13 44 -12 0 -16 10 -16 40 l0 40 60 0 60 0 -2 -82z
m-188 -32 c0 -19 4 -37 9 -40 5 -3 11 -24 13 -46 3 -39 3 -40 -28 -40 -30 0
-32 3 -36 40 -2 28 0 40 9 40 8 0 13 14 13 40 0 22 5 40 10 40 6 0 10 -15 10
-34z m610 -1 c0 -8 -4 -15 -10 -15 -5 0 -10 7 -10 15 0 8 5 15 10 15 6 0 10
-7 10 -15z m-380 -84 c0 -22 5 -41 11 -43 14 -5 -5 -48 -21 -48 -16 0 -35 43
-21 48 6 2 11 21 11 43 0 21 5 39 10 39 6 0 10 -18 10 -39z m110 29 c0 -5 -4
-10 -9 -10 -6 0 -13 5 -16 10 -3 6 1 10 9 10 9 0 16 -4 16 -10z m-55 -30 c0
-7 -6 -15 -12 -17 -8 -3 -13 4 -13 17 0 13 5 20 13 18 6 -3 12 -11 12 -18z
m55 -45 c0 -18 -4 -23 -15 -19 -16 6 -20 26 -8 37 13 14 23 6 23 -18z m52 -35
c2 -28 0 -40 -9 -40 -8 0 -13 14 -13 40 0 22 4 40 9 40 5 0 11 -18 13 -40z
m-2 -105 c0 -8 -4 -15 -10 -15 -5 0 -10 7 -10 15 0 8 5 15 10 15 6 0 10 -7 10
-15z m-196 -30 c-4 -8 -8 -15 -10 -15 -2 0 -4 7 -4 15 0 8 4 15 10 15 5 0 7
-7 4 -15z m66 -50 c0 -8 -4 -15 -10 -15 -5 0 -7 7 -4 15 4 8 8 15 10 15 2 0 4
-7 4 -15z m228 -67 c-2 -41 -7 -54 -20 -56 -15 -3 -18 5 -18 52 0 50 2 56 21
56 18 0 20 -5 17 -52z m62 12 c0 -33 -3 -40 -20 -40 -17 0 -20 7 -20 40 0 33
3 40 20 40 17 0 20 -7 20 -40z m-290 -185 c0 -8 -7 -15 -15 -15 -16 0 -20 12
-8 23 11 12 23 8 23 -8z m-160 -185 c0 -5 -4 -10 -10 -10 -5 0 -10 5 -10 10 0
6 5 10 10 10 6 0 10 -4 10 -10z m-24 -68 c-19 -4 -56 32 -56 55 0 13 9 8 36
-18 25 -24 31 -35 20 -37z m24 -166 c0 -20 -6 -36 -14 -39 -8 -3 -16 -18 -18
-33 -4 -33 -19 -40 -34 -17 -17 28 -6 93 16 93 10 0 20 7 24 15 10 27 26 16
26 -19z m240 -11 c0 -8 -7 -15 -15 -15 -8 0 -15 7 -15 15 0 8 7 15 15 15 8 0
15 -7 15 -15z m-320 -30 c0 -8 -7 -15 -15 -15 -16 0 -20 12 -8 23 11 12 23 8
23 -8z m270 -20 c0 -8 -9 -15 -20 -15 -13 0 -18 5 -14 15 4 8 12 15 20 15 8 0
14 -7 14 -15z m100 -55 c0 -22 -4 -40 -10 -40 -5 0 -10 18 -10 40 0 22 5 40
10 40 6 0 10 -18 10 -40z m-370 -15 c0 -14 -4 -25 -10 -25 -11 0 -14 33 -3 43
11 11 13 8 13 -18z m120 -119 c0 -8 -4 -18 -10 -21 -5 -3 -10 3 -10 14 0 12 5
21 10 21 6 0 10 -6 10 -14z m37 -58 c-3 -7 -5 -2 -5 12 0 14 2 19 5 13 2 -7 2
-19 0 -25z m403 -128 c0 -22 -4 -40 -10 -40 -5 0 -10 18 -10 40 0 22 5 40 10
40 6 0 10 -18 10 -40z m640 -161 c0 -26 4 -38 11 -34 6 4 5 -2 -3 -14 -9 -15
-23 -21 -50 -21 l-38 0 0 -65 c0 -51 -3 -65 -15 -65 -11 0 -15 11 -15 40 0 23
5 40 11 40 7 0 10 15 7 40 -2 22 0 40 4 40 5 0 8 18 8 40 l0 40 40 0 40 0 0
-41z m110 26 c0 -8 -7 -15 -15 -15 -8 0 -15 7 -15 15 0 8 7 15 15 15 8 0 15
-7 15 -15z m-670 -157 c0 -43 -10 -48 -40 -16 -23 25 -23 28 -10 64 10 26 11
26 30 9 13 -12 20 -31 20 -57z m648 -34 l-3 -39 -5 47 c-3 26 -1 43 3 39 5 -5
7 -26 5 -47z m-328 -19 c0 -64 -11 -82 -28 -47 -13 26 -3 112 14 112 11 0 14
-16 14 -65z m-164 -43 c-4 -3 -12 0 -19 7 -9 9 -9 14 3 21 11 7 16 5 18 -6 2
-9 1 -18 -2 -22z m-106 13 c0 -8 -4 -15 -10 -15 -5 0 -10 7 -10 15 0 8 5 15
10 15 6 0 10 -7 10 -15z m590 -80 c0 -61 -1 -65 -23 -65 -13 0 -29 -6 -35 -12
-19 -19 -32 8 -30 57 l1 40 4 -42 c5 -56 23 -56 23 0 0 30 6 50 20 65 33 35
40 27 40 -43z m-1273 -47 c-2 -13 -4 -3 -4 22 0 25 2 35 4 23 2 -13 2 -33 0
-45z m89 35 c-3 -16 -9 -52 -12 -80 -8 -65 -34 -75 -34 -13 0 22 5 40 10 40 6
0 10 18 10 40 0 30 4 40 16 40 13 0 15 -6 10 -27z m1264 2 c0 -35 -18 -32 -49
8 -12 15 -11 17 18 17 26 0 31 -4 31 -25z m-1218 -30 c2 -11 -1 -22 -7 -25 -5
-3 -11 11 -13 30 -4 37 15 33 20 -5z m898 -100 c0 -39 -14 -46 -30 -16 -7 15
-6 23 6 35 22 22 24 21 24 -19z m185 5 c3 -5 15 -10 26 -10 16 0 19 -7 19 -40
0 -33 -3 -40 -20 -40 -17 0 -20 7 -20 40 0 29 -4 40 -15 40 -8 0 -15 5 -15 10
0 6 4 10 9 10 6 0 13 -4 16 -10z m-1226 -52 c0 -36 -2 -39 -9 -20 -5 12 -14
22 -20 22 -5 0 -10 9 -10 20 0 13 7 20 20 20 17 0 20 -6 19 -42z m-39 -23 c0
-8 -7 -15 -15 -15 -16 0 -20 12 -8 23 11 12 23 8 23 -8z m1310 -135 c0 -33 -3
-40 -20 -40 -17 0 -20 7 -20 40 0 33 3 40 20 40 17 0 20 -7 20 -40z m2564
-265 c8 -8 20 -15 27 -15 10 0 10 -3 1 -12 -10 -10 -15 -10 -23 2 -8 12 -12
12 -16 2 -4 -10 -8 -9 -19 5 -7 10 -14 21 -14 26 0 13 28 8 44 -8z m61 -86
c10 -15 -1 -23 -20 -15 -9 3 -13 10 -10 16 8 13 22 13 30 -1z m-58 -51 c-3 -8
-6 -5 -6 6 -1 11 2 17 5 13 3 -3 4 -12 1 -19z m60 -34 c-3 -3 -12 -4 -19 -1
-8 3 -5 6 6 6 11 1 17 -2 13 -5z m-3177 -25 c0 -11 -4 -17 -10 -14 -5 3 -10
13 -10 21 0 8 5 14 10 14 6 0 10 -9 10 -21z m3114 5 c11 -28 6 -38 -9 -18 -8
10 -15 22 -15 27 0 13 18 7 24 -9z m-3754 -79 c0 -8 -4 -15 -10 -15 -5 0 -10
7 -10 15 0 8 5 15 10 15 6 0 10 -7 10 -15z m-110 -75 c0 -5 -2 -10 -4 -10 -3
0 -8 5 -11 10 -3 6 -1 10 4 10 6 0 11 -4 11 -10z m270 1 c0 -17 -34 -22 -49
-6 -14 13 -12 15 17 15 18 0 32 -4 32 -9z m52 -31 c3 -31 0 -40 -12 -40 -12 0
-15 9 -12 40 2 22 8 40 12 40 4 0 10 -18 12 -40z m-296 -47 c-11 -11 -17 4 -9
23 7 18 8 18 11 1 2 -10 1 -21 -2 -24z m166 20 c4 -16 -1 -18 -39 -14 -57 4
-61 31 -4 31 28 0 40 -5 43 -17z m67 8 c12 -8 12 -12 2 -25 -7 -8 -10 -20 -6
-26 3 -6 -3 -10 -14 -10 -13 0 -19 5 -15 14 3 8 0 17 -6 21 -8 5 -8 11 1 21
13 16 19 17 38 5z m149 -18 c-10 -2 -28 -2 -40 0 -13 2 -5 4 17 4 22 1 32 -1
23 -4z m5047 -78 c39 -1 88 -5 110 -10 22 -5 48 -8 58 -6 10 1 17 -4 17 -13 0
-18 9 -18 -233 -20 -99 0 -183 1 -188 4 -5 4 -44 3 -86 -1 -104 -10 -342 -14
-350 -5 -12 11 11 25 52 31 70 9 319 24 327 19 16 -10 110 -6 122 6 7 8 26 9
56 4 25 -4 77 -8 115 -9z m310 -16 c10 -14 3 -19 -38 -26 -45 -7 -69 1 -61 22
7 18 89 22 99 4z m63 -7 c2 -7 -6 -12 -17 -12 -21 0 -27 11 -14 24 9 9 26 2
31 -12z m-1137 -12 c16 0 10 -28 -8 -35 -20 -7 -183 -8 -190 -1 -15 15 16 26
70 26 34 0 69 5 77 10 8 5 21 8 28 5 8 -3 18 -5 23 -5z m1266 -35 c7 -2 27 1
44 7 27 9 34 8 45 -7 11 -15 16 -16 28 -6 17 14 36 7 36 -14 0 -33 -41 -37
-404 -43 -380 -5 -568 -4 -576 5 -11 10 33 31 88 42 62 12 116 2 138 -25 9
-11 14 -11 28 5 14 15 32 19 92 20 42 1 74 -3 74 -9 0 -9 18 -6 55 11 40 18
133 27 235 22 58 -2 110 -6 117 -8z m-4072 -10 c39 -2 85 -5 103 -5 18 0 31
-4 28 -9 -8 -13 -243 -23 -296 -13 -29 5 -96 3 -185 -5 -177 -18 -456 -26
-474 -14 -26 17 0 34 43 28 22 -3 106 1 186 8 228 23 363 25 595 10z m4275 -5
c-8 -5 -19 -10 -25 -10 -5 0 -3 5 5 10 8 5 20 10 25 10 6 0 3 -5 -5 -10z
m-5240 -21 c0 -5 -12 -9 -27 -9 -27 1 -27 1 -9 15 19 14 36 12 36 -6z m1180
11 c0 -5 -7 -10 -15 -10 -8 0 -15 5 -15 10 0 6 7 10 15 10 8 0 15 -4 15 -10z
m2590 -50 c41 -26 -58 -43 -184 -32 -82 7 -47 24 56 27 44 2 82 6 85 9 9 9 26
7 43 -4z m-4100 -15 c0 -16 -20 -19 -59 -8 -23 6 -23 7 -5 14 33 13 64 10 64
-6z m70 5 c0 -5 -9 -10 -20 -10 -11 0 -20 5 -20 10 0 6 9 10 20 10 11 0 20 -4
20 -10z m1185 -6 c146 -2 147 -2 143 -16 -6 -18 -61 -30 -148 -33 -41 -2 -126
-6 -188 -8 -65 -3 -115 -1 -118 4 -11 18 18 39 55 40 20 0 52 6 71 13 19 7 44
11 55 8 11 -3 70 -7 130 -8z m2905 6 c0 -5 -7 -7 -15 -4 -8 4 -15 8 -15 10 0
2 7 4 15 4 8 0 15 -4 15 -10z m-2630 -10 c13 -9 13 -11 0 -20 -22 -14 -66 -12
-79 4 -9 11 -9 15 1 19 22 9 62 7 78 -3z m2178 -7 c-10 -2 -26 -2 -35 0 -10 3
-2 5 17 5 19 0 27 -2 18 -5z m-2970 -36 c29 -19 -5 -24 -139 -23 -100 1 -143
5 -146 13 -2 7 8 13 24 15 53 7 248 3 261 -5z m4010 2 c10 -1 6 -4 -8 -8 -29
-9 -52 -3 -44 11 3 5 13 7 21 4 8 -3 22 -6 31 -7z m-714 -48 c17 -5 60 -14 96
-19 36 -5 89 -21 118 -34 l54 -25 -34 -5 c-49 -7 -487 -10 -498 -3 -20 12 51
57 117 74 82 22 107 24 147 12z m-2920 -26 c45 -9 46 -22 4 -30 -37 -7 -337 1
-345 9 -9 8 8 28 21 23 7 -3 39 -1 71 3 64 8 191 6 249 -5z m304 -8 c2 -11 -3
-17 -16 -17 -26 0 -34 11 -20 27 14 17 32 12 36 -10z m-163 4 c7 -12 -12 -24
-25 -16 -11 7 -4 25 10 25 5 0 11 -4 15 -9z m3523 -47 c22 -7 4 -21 -34 -27
-25 -4 -49 -1 -73 11 l-36 17 35 6 c33 5 78 2 108 -7z m-765 -45 c16 0 27 -5
27 -13 0 -11 -17 -13 -75 -11 -51 3 -84 -1 -102 -10 -24 -13 -29 -13 -36 1 -6
11 -17 14 -33 10 -19 -5 -24 -3 -24 14 0 20 4 20 108 14 59 -3 119 -6 135 -5z
m-53 -70 c0 -5 -11 -8 -25 -7 -24 2 -31 9 -19 20 8 8 44 -3 44 -13z"/>
<path d="M506 4255 c-4 -10 1 -15 14 -15 13 0 18 5 14 15 -4 8 -10 15 -14 15
-4 0 -10 -7 -14 -15z"/>
<path d="M311 4814 c0 -11 3 -14 6 -6 3 7 2 16 -1 19 -3 4 -6 -2 -5 -13z"/>
<path d="M83 4760 c0 -25 2 -35 4 -22 2 12 2 32 0 45 -2 12 -4 2 -4 -23z"/>
<path d="M320 4776 c0 -8 5 -18 10 -21 6 -3 10 1 10 9 0 8 -4 18 -10 21 -5 3
-10 -1 -10 -9z"/>
<path d="M311 4734 c0 -11 3 -14 6 -6 3 7 2 16 -1 19 -3 4 -6 -2 -5 -13z"/>
<path d="M112 4683 c2 -21 8 -38 13 -38 6 0 11 17 13 38 3 29 0 37 -13 37 -13
0 -16 -8 -13 -37z"/>
<path d="M360 4688 c0 -23 11 -48 21 -48 14 0 11 24 -6 46 -12 16 -14 17 -15
2z"/>
<path d="M401 4604 c0 -11 3 -14 6 -6 3 7 2 16 -1 19 -3 4 -6 -2 -5 -13z"/>
<path d="M363 4520 c2 -52 17 -52 17 0 0 22 -4 40 -9 40 -5 0 -8 -18 -8 -40z"/>
<path d="M441 4523 c0 -4 4 -17 9 -28 8 -19 9 -19 9 2 1 12 -3 25 -9 28 -5 3
-10 3 -9 -2z"/>
<path d="M410 4490 c0 -5 5 -10 11 -10 5 0 7 5 4 10 -3 6 -8 10 -11 10 -2 0
-4 -4 -4 -10z"/>
<path d="M479 4428 c4 -12 13 -24 20 -26 9 -3 9 2 0 22 -15 32 -32 35 -20 4z"/>
<path d="M0 4256 c0 -9 7 -16 16 -16 17 0 14 22 -4 28 -7 2 -12 -3 -12 -12z"/>
<path d="M1140 4031 c0 -11 3 -27 6 -36 5 -13 8 -14 15 -3 7 10 9 10 9 1 0 -7
5 -13 10 -13 17 0 11 16 -15 44 -22 24 -25 25 -25 7z"/>
<path d="M754 3909 c0 -42 2 -48 23 -52 23 -4 33 16 13 28 -5 3 -10 14 -10 23
0 9 -6 24 -13 33 -10 13 -12 8 -13 -32z"/>
<path d="M1160 3935 c0 -8 4 -15 10 -15 5 0 7 7 4 15 -4 8 -8 15 -10 15 -2 0
-4 -7 -4 -15z"/>
<path d="M2200 3830 c0 -5 -9 -10 -20 -10 -13 0 -20 -7 -20 -20 0 -13 7 -20
20 -20 17 0 20 -7 20 -49 0 -27 -5 -51 -11 -53 -11 -4 -2 -38 11 -38 5 0 11 9
15 19 3 12 26 26 55 37 28 10 50 21 50 24 0 4 -18 13 -40 20 -22 7 -40 19 -40
27 0 7 -9 13 -20 13 -13 0 -20 7 -20 20 0 13 7 20 20 20 11 0 20 5 20 10 0 6
-9 10 -20 10 -11 0 -20 -4 -20 -10z"/>
<path d="M1790 3739 c-24 -41 -50 -84 -58 -96 -13 -20 -13 -23 2 -23 8 0 18
11 22 24 3 13 17 34 30 47 13 12 24 31 24 42 0 11 7 28 16 38 9 10 14 23 12
30 -2 7 -24 -21 -48 -62z"/>
<path d="M830 3770 c0 -5 5 -10 11 -10 5 0 7 5 4 10 -3 6 -8 10 -11 10 -2 0
-4 -4 -4 -10z"/>
<path d="M840 3714 c0 -8 5 -12 10 -9 6 3 10 10 10 16 0 5 -4 9 -10 9 -5 0
-10 -7 -10 -16z"/>
<path d="M2400 3720 c0 -5 18 -10 40 -10 22 0 40 5 40 10 0 6 -18 10 -40 10
-22 0 -40 -4 -40 -10z"/>
<path d="M2315 3668 c-2 -7 -5 -24 -7 -38 -4 -32 -38 -41 -38 -10 0 25 -15 19
-22 -8 -4 -15 5 -24 38 -40 l44 -22 -6 44 c-4 27 -2 46 5 50 14 9 15 36 1 36
-6 0 -13 -6 -15 -12z"/>
<path d="M2387 3633 c-12 -11 -7 -47 8 -67 14 -18 14 -16 11 23 -4 44 -8 55
-19 44z"/>
<path d="M1697 3587 c-19 -30 -48 -99 -44 -104 2 -2 12 15 22 37 10 22 21 40
25 40 4 0 10 11 12 25 6 31 4 31 -15 2z"/>
<path d="M2195 3590 c3 -5 8 -10 11 -10 2 0 4 5 4 10 0 6 -5 10 -11 10 -5 0
-7 -4 -4 -10z"/>
<path d="M2092 3548 c-19 -19 -14 -28 14 -28 18 0 25 5 22 17 -4 21 -21 26
-36 11z"/>
<path d="M2440 3510 c0 -5 5 -10 11 -10 5 0 7 5 4 10 -3 6 -8 10 -11 10 -2 0
-4 -4 -4 -10z"/>
<path d="M1912 3470 c0 -14 2 -19 5 -12 2 6 2 18 0 25 -3 6 -5 1 -5 -13z"/>
<path d="M2337 3469 c-21 -24 -14 -38 11 -23 18 12 29 44 15 44 -5 0 -17 -9
-26 -21z"/>
<path d="M553 3405 c6 -19 12 -33 15 -31 7 7 -9 66 -18 66 -4 0 -3 -16 3 -35z"/>
<path d="M2423 3403 c-8 -26 -8 -40 -1 -44 12 -8 -8 -79 -23 -79 -5 0 -9 -17
-9 -38 0 -34 -4 -40 -35 -52 -35 -14 -50 -50 -20 -50 8 0 20 -9 27 -20 7 -11
21 -20 31 -20 14 0 17 5 12 20 -5 17 -2 20 23 20 35 0 45 9 31 27 -8 9 -8 17
0 27 8 9 8 21 0 45 -9 25 -8 36 5 56 28 43 14 145 -20 145 -5 0 -14 -17 -21
-37z m-3 -195 c0 -5 -4 -8 -10 -8 -5 0 -10 10 -10 23 0 18 2 19 10 7 5 -8 10
-18 10 -22z m-20 -48 c0 -5 -4 -10 -10 -10 -5 0 -10 5 -10 10 0 6 5 10 10 10
6 0 10 -4 10 -10z"/>
<path d="M562 3340 c0 -14 2 -19 5 -12 2 6 2 18 0 25 -3 6 -5 1 -5 -13z"/>
<path d="M2257 3344 c-13 -13 -7 -24 14 -24 11 0 19 5 17 12 -5 14 -22 21 -31
12z"/>
<path d="M2110 3246 c-191 -58 -183 -54 -174 -90 4 -17 7 -65 5 -106 l-2 -75
33 -16 c55 -27 162 -69 177 -69 9 0 11 -8 7 -25 -4 -14 -2 -25 4 -25 5 0 10 5
10 10 0 6 13 17 29 23 l30 13 -21 32 c-11 18 -24 32 -28 32 -5 0 -29 17 -53
38 -25 22 -61 49 -81 61 -20 13 -36 29 -36 36 0 8 30 31 68 51 37 21 82 51
101 66 18 16 39 27 47 24 10 -4 14 3 14 24 0 36 3 36 -130 -4z"/>
<path d="M2500 3195 c1 -26 2 -28 11 -12 8 14 8 22 0 30 -8 8 -11 3 -11 -18z"/>
<path d="M6025 3190 c3 -5 8 -10 11 -10 2 0 4 5 4 10 0 6 -5 10 -11 10 -5 0
-7 -4 -4 -10z"/>
<path d="M540 3140 c0 -11 5 -20 10 -20 6 0 10 -18 10 -40 0 -33 3 -40 20 -40
16 0 20 7 20 35 0 40 -25 85 -46 85 -8 0 -14 -9 -14 -20z"/>
<path d="M481 3093 c-1 -47 1 -53 19 -53 17 0 20 7 20 40 0 28 -4 40 -14 40
-8 0 -17 6 -19 13 -3 6 -6 -12 -6 -40z"/>
<path d="M2175 3130 c-3 -5 -1 -10 4 -10 6 0 11 5 11 10 0 6 -2 10 -4 10 -3 0
-8 -4 -11 -10z"/>
<path d="M1750 3110 c-25 -25 -25 -32 -1 -54 40 -36 83 21 45 58 -20 20 -20
20 -44 -4z"/>
<path d="M640 3080 c0 -15 5 -20 18 -18 9 2 17 10 17 18 0 8 -8 16 -17 18 -13
2 -18 -3 -18 -18z"/>
<path d="M2320 3080 c0 -5 -7 -10 -15 -10 -8 0 -15 -7 -15 -15 0 -8 -9 -15
-19 -15 -15 0 -20 -9 -23 -45 l-3 -44 37 6 c30 4 38 2 38 -10 0 -8 -5 -17 -12
-19 -7 -3 -6 -7 5 -11 10 -4 17 -2 17 4 0 6 14 27 30 46 29 33 40 73 20 73 -5
0 -10 -6 -10 -14 0 -19 -14 -28 -34 -20 -20 8 -21 43 -1 50 8 4 15 12 15 20 0
8 -7 14 -15 14 -8 0 -15 -4 -15 -10z"/>
<path d="M982 2934 c2 -11 13 -20 28 -23 14 -1 28 -7 31 -12 3 -6 23 -12 45
-15 l39 -4 -35 14 c-19 7 -52 24 -74 36 -36 22 -38 22 -34 4z"/>
<path d="M1880 2920 c-14 -11 -20 -20 -13 -20 6 0 15 5 18 11 4 6 13 8 21 5 8
-3 14 1 14 9 0 20 -10 19 -40 -5z"/>
<path d="M1538 2883 c6 -2 18 -2 25 0 6 3 1 5 -13 5 -14 0 -19 -2 -12 -5z"/>
<path d="M6187 2883 c-10 -10 -8 -63 2 -63 7 0 12 70 5 70 0 0 -4 -3 -7 -7z"/>
<path d="M2240 2869 c0 -5 5 -7 10 -4 6 3 10 8 10 11 0 2 -4 4 -10 4 -5 0 -10
-5 -10 -11z"/>
<path d="M1341 2849 c-69 -24 -77 -33 -23 -26 39 5 62 -8 25 -15 -16 -3 -16
-4 0 -20 9 -9 17 -22 17 -28 0 -20 24 -5 48 30 43 64 17 88 -67 59z"/>
<path d="M1755 2850 c4 -6 11 -8 16 -5 14 9 11 15 -7 15 -8 0 -12 -5 -9 -10z"/>
<path d="M1504 2811 c-5 -5 -20 -11 -34 -13 -21 -2 -26 -9 -28 -40 -2 -22 1
-38 7 -38 6 0 11 11 11 25 0 27 12 32 93 37 49 3 52 0 48 -44 -1 -10 4 -18 13
-18 12 0 16 11 16 44 0 26 5 46 13 49 6 2 -20 5 -59 5 -39 1 -75 -3 -80 -7z"/>
<path d="M1680 2810 c0 -5 9 -10 19 -10 11 0 23 5 26 10 4 6 -5 10 -19 10 -14
0 -26 -4 -26 -10z"/>
<path d="M2153 2773 c-7 -15 -13 -33 -13 -41 0 -8 -8 -21 -17 -28 -17 -12 -17
-14 2 -27 20 -15 45 -12 45 5 0 5 -4 7 -9 3 -15 -9 -25 15 -12 28 9 9 14 8 22
-3 8 -13 11 -12 24 4 17 23 21 71 4 61 -6 -4 -16 0 -22 9 -11 14 -14 13 -24
-11z m37 -28 c0 -8 -7 -15 -15 -15 -8 0 -15 7 -15 15 0 8 7 15 15 15 8 0 15
-7 15 -15z"/>
<path d="M1840 2740 c0 -11 7 -20 15 -20 13 0 14 4 5 20 -6 11 -13 20 -15 20
-3 0 -5 -9 -5 -20z"/>
<path d="M1026 2700 c-10 -10 -15 -23 -11 -29 9 -16 22 -13 29 7 3 9 9 23 12
30 8 18 -8 14 -30 -8z"/>
<path d="M1760 2709 c0 -5 5 -7 10 -4 6 3 10 8 10 11 0 2 -4 4 -10 4 -5 0 -10
-5 -10 -11z"/>
<path d="M2081 2684 c0 -11 3 -14 6 -6 3 7 2 16 -1 19 -3 4 -6 -2 -5 -13z"/>
<path d="M1200 2680 c0 -5 5 -10 10 -10 6 0 10 5 10 10 0 6 -4 10 -10 10 -5 0
-10 -4 -10 -10z"/>
<path d="M6137 2626 c-30 -58 -32 -66 -17 -66 6 0 10 6 10 14 0 7 7 19 15 26
8 7 15 23 15 35 0 13 5 25 12 27 8 3 8 7 2 11 -6 3 -22 -18 -37 -47z"/>
<path d="M1760 2623 c0 -40 14 -63 38 -63 12 0 11 4 -2 25 -9 13 -16 33 -16
44 0 11 -4 23 -10 26 -6 4 -10 -9 -10 -32z"/>
<path d="M6208 2643 c7 -3 16 -2 19 1 4 3 -2 6 -13 5 -11 0 -14 -3 -6 -6z"/>
<path d="M880 2624 c0 -9 5 -14 12 -12 18 6 21 28 4 28 -9 0 -16 -7 -16 -16z"/>
<path d="M1573 2628 c5 -17 49 -17 55 0 2 8 -7 12 -28 12 -21 0 -30 -4 -27
-12z"/>
<path d="M1682 2621 c-1 -13 -10 -30 -19 -37 -16 -12 -16 -15 -3 -23 22 -15
32 1 27 45 -2 22 -4 28 -5 15z"/>
<path d="M937 2583 c-5 -10 11 -174 18 -181 3 -3 5 13 5 36 0 23 5 42 10 42
18 0 11 70 -9 91 -10 11 -21 17 -24 12z"/>
<path d="M5300 2580 c0 -5 14 -10 32 -10 36 0 35 4 -4 14 -17 4 -28 2 -28 -4z"/>
<path d="M2035 2550 c3 -5 8 -10 11 -10 2 0 4 5 4 10 0 6 -5 10 -11 10 -5 0
-7 -4 -4 -10z"/>
<path d="M5300 2440 c0 -128 13 -160 24 -59 11 111 8 179 -9 179 -12 0 -15
-20 -15 -120z"/>
<path d="M1790 2515 c0 -19 5 -35 10 -35 6 0 10 16 10 35 0 19 -4 35 -10 35
-5 0 -10 -16 -10 -35z"/>
<path d="M5440 2526 c0 -9 -6 -16 -14 -16 -14 0 -31 -45 -21 -59 2 -5 13 -11
24 -14 14 -3 23 3 31 24 7 16 19 29 26 29 8 0 14 5 14 11 0 7 -10 9 -26 5 -21
-6 -25 -4 -21 8 4 9 2 18 -3 21 -6 4 -10 -1 -10 -9z"/>
<path d="M847 2490 c-18 -22 -24 -90 -7 -90 6 0 10 18 10 40 0 48 24 55 41 13
10 -26 12 -27 19 -8 13 31 12 35 -10 35 -11 0 -20 7 -20 15 0 21 -12 19 -33
-5z"/>
<path d="M1520 2496 c0 -9 5 -16 10 -16 6 0 10 4 10 9 0 6 -4 13 -10 16 -5 3
-10 -1 -10 -9z"/>
<path d="M1679 2443 c3 -43 3 -43 42 -43 39 0 39 0 39 39 0 39 0 39 -42 42
l-43 4 4 -42z"/>
<path d="M5502 2481 c-7 -4 -6 -14 3 -31 10 -18 14 -20 15 -8 0 9 4 18 9 20 5
2 3 8 -4 15 -6 6 -17 8 -23 4z"/>
<path d="M6073 2483 c4 -3 7 -13 7 -24 0 -12 7 -19 20 -19 13 0 20 -7 20 -20
0 -13 -7 -20 -20 -20 -17 0 -20 -7 -20 -40 0 -33 3 -40 20 -40 17 0 20 7 20
40 0 33 3 40 20 40 13 0 20 7 20 20 0 13 -7 20 -20 20 -13 0 -20 7 -20 20 0
11 -6 20 -14 20 -8 0 -20 2 -28 3 -7 2 -10 2 -5 0z"/>
<path d="M1593 2440 c0 -25 2 -35 4 -22 2 12 2 32 0 45 -2 12 -4 2 -4 -23z"/>
<path d="M5971 2459 c-13 -11 -18 -19 -10 -19 21 0 42 16 38 28 -2 6 -14 2
-28 -9z"/>
<path d="M5660 2410 c0 -5 5 -10 10 -10 6 0 10 5 10 10 0 6 -4 10 -10 10 -5 0
-10 -4 -10 -10z"/>
<path d="M5855 2410 c-18 -8 -17 -9 7 -9 15 -1 30 4 33 9 7 12 -12 12 -40 0z"/>
<path d="M5696 2373 c6 -38 19 -61 28 -52 3 3 8 24 12 47 6 41 6 42 -20 42
-26 0 -27 -2 -20 -37z"/>
<path d="M1640 2384 c0 -9 7 -14 17 -12 25 5 28 28 4 28 -12 0 -21 -6 -21 -16z"/>
<path d="M5420 2364 c0 -20 6 -42 14 -50 16 -16 86 -19 86 -4 0 6 -13 10 -30
10 -28 0 -30 2 -30 38 0 31 -4 38 -20 39 -16 1 -20 -4 -20 -33z"/>
<path d="M5790 2390 c0 -5 7 -10 15 -10 8 0 15 5 15 10 0 6 -7 10 -15 10 -8 0
-15 -4 -15 -10z"/>
<path d="M6270 2355 c0 -19 -4 -35 -9 -35 -5 0 -12 -36 -16 -80 -5 -57 -11
-80 -20 -80 -9 0 -15 14 -17 38 -2 30 -7 38 -25 40 -21 3 -23 -1 -23 -37 0
-23 -4 -41 -10 -41 -5 0 -10 -18 -10 -40 l0 -40 50 0 c38 0 50 4 50 15 0 8 7
15 15 15 8 0 15 -7 15 -15 0 -12 14 -15 65 -15 l65 0 0 40 0 40 -40 0 c-29 0
-40 -4 -40 -15 0 -8 -7 -15 -15 -15 -8 0 -15 7 -15 15 0 8 7 15 15 15 12 0 15
16 15 80 0 64 -3 80 -15 80 -10 0 -15 11 -15 35 0 19 -4 35 -10 35 -5 0 -10
-16 -10 -35z"/>
<path d="M815 2370 c-4 -7 -3 -16 3 -22 14 -14 47 -6 47 12 0 18 -40 26 -50
10z"/>
<path d="M1680 2365 c0 -11 11 -15 40 -15 29 0 40 4 40 15 0 11 -11 15 -40 15
-29 0 -40 -4 -40 -15z"/>
<path d="M1563 2350 c-6 -15 -7 -26 -1 -29 15 -5 20 5 16 31 l-5 23 -10 -25z"/>
<path d="M5057 2305 c-35 -26 4 -86 42 -65 27 14 28 56 2 70 -24 12 -22 12
-44 -5z"/>
<path d="M5920 2280 c0 -22 -4 -40 -10 -40 -5 0 -10 -18 -10 -40 0 -22 5 -40
10 -40 6 0 10 -18 10 -40 0 -56 17 -50 22 8 3 32 0 51 -9 58 -18 15 -17 54 2
54 11 0 15 11 15 40 0 29 -4 40 -15 40 -11 0 -15 -11 -15 -40z"/>
<path d="M5970 2270 c0 -36 4 -52 15 -56 8 -4 15 -17 15 -30 0 -13 5 -24 10
-24 6 0 10 18 10 40 0 22 -4 40 -10 40 -5 0 -10 18 -10 40 0 29 -4 40 -15 40
-11 0 -15 -12 -15 -50z"/>
<path d="M6354 2303 c-3 -10 -10 -26 -15 -36 -12 -22 -6 -32 16 -24 8 4 15 15
15 26 0 11 5 23 10 26 15 9 12 25 -5 25 -9 0 -18 -8 -21 -17z"/>
<path d="M5272 2250 c0 -14 2 -19 5 -12 2 6 2 18 0 25 -3 6 -5 1 -5 -13z"/>
<path d="M5435 2230 c3 -5 24 -10 46 -10 21 0 39 5 39 10 0 6 -21 10 -46 10
-27 0 -43 -4 -39 -10z"/>
<path d="M5250 2205 c0 -8 5 -15 10 -15 6 0 10 7 10 15 0 8 -4 15 -10 15 -5 0
-10 -7 -10 -15z"/>
<path d="M3622 2175 c3 -47 18 -57 18 -11 0 19 -5 38 -10 41 -7 4 -10 -7 -8
-30z"/>
<path d="M5225 2170 c-3 -5 -1 -10 4 -10 6 0 11 5 11 10 0 6 -2 10 -4 10 -3 0
-8 -4 -11 -10z"/>
<path d="M5306 2145 c4 -8 10 -15 14 -15 4 0 10 7 14 15 4 10 -1 15 -14 15
-13 0 -18 -5 -14 -15z"/>
<path d="M5412 2149 c2 -6 8 -10 13 -10 5 0 11 4 13 10 2 6 -4 11 -13 11 -9 0
-15 -5 -13 -11z"/>
<path d="M5833 2120 c0 -25 2 -35 4 -22 2 12 2 32 0 45 -2 12 -4 2 -4 -23z"/>
<path d="M5582 2118 c-17 -17 -15 -38 3 -38 9 0 15 9 15 25 0 29 -1 30 -18 13z"/>
<path d="M5160 2099 c0 -5 5 -7 10 -4 6 3 10 8 10 11 0 2 -4 4 -10 4 -5 0 -10
-5 -10 -11z"/>
<path d="M5273 2090 c-7 -11 -12 -37 -12 -57 l2 -38 7 40 7 40 2 -37 c0 -21 6
-38 12 -38 7 0 10 -15 7 -40 -2 -24 1 -40 7 -40 6 0 9 -16 7 -40 -3 -25 0 -40
7 -40 6 0 11 17 11 40 0 22 3 40 8 40 4 0 6 18 4 40 -2 22 -9 40 -14 40 -6 0
-8 17 -6 40 3 33 0 40 -14 40 -9 0 -18 7 -20 15 -2 13 -6 12 -15 -5z"/>
<path d="M5346 2095 c-3 -8 -1 -15 4 -15 6 0 10 -18 10 -40 0 -29 4 -40 15
-40 17 0 21 -55 5 -80 -5 -9 -5 -19 1 -26 12 -14 17 -134 7 -134 -5 0 -8 -18
-8 -40 0 -28 4 -40 14 -40 10 0 16 -14 19 -42 2 -24 4 -6 5 40 1 45 6 82 11
82 5 0 11 9 14 20 4 15 14 20 41 20 l36 0 0 60 c0 33 -4 60 -10 60 -5 0 -10
-18 -10 -40 0 -33 -3 -40 -20 -40 -17 0 -20 7 -20 40 0 22 -4 40 -10 40 -5 0
-10 -19 -10 -42 0 -40 -1 -41 -15 -21 -20 28 -27 106 -17 171 7 39 6 52 -3 52
-7 0 -15 7 -19 15 -3 8 -12 15 -20 15 -7 0 -16 -7 -20 -15z"/>
<path d="M5625 2083 c8 -34 11 -37 24 -28 6 3 11 17 11 31 0 18 -5 24 -21 24
-18 0 -20 -4 -14 -27z"/>
<path d="M1506 2032 c-4 -13 -5 -26 -2 -29 10 -11 18 4 14 29 l-4 23 -8 -23z"/>
<path d="M5878 1960 c-2 -24 1 -40 7 -40 6 0 9 16 7 40 -2 22 -5 40 -7 40 -2
0 -5 -18 -7 -40z"/>
<path d="M1716 1945 c-9 -26 -7 -32 5 -12 6 10 9 21 6 23 -2 3 -7 -2 -11 -11z"/>
<path d="M3875 1950 c3 -5 11 -10 16 -10 6 0 7 5 4 10 -3 6 -11 10 -16 10 -6
0 -7 -4 -4 -10z"/>
<path d="M5938 1923 c12 -2 32 -2 45 0 12 2 2 4 -23 4 -25 0 -35 -2 -22 -4z"/>
<path d="M3956 1905 c25 -19 40 -19 24 0 -7 8 -20 15 -28 15 -13 0 -12 -3 4
-15z"/>
<path d="M5560 1880 c0 -33 3 -40 20 -40 17 0 20 7 20 40 0 33 -3 40 -20 40
-17 0 -20 -7 -20 -40z"/>
<path d="M6140 1880 c0 -22 5 -40 10 -40 6 0 10 18 10 40 0 22 -4 40 -10 40
-5 0 -10 -18 -10 -40z"/>
<path d="M5227 1874 c-14 -15 -6 -34 14 -34 14 0 19 5 17 17 -3 18 -20 27 -31
17z"/>
<path d="M6047 1863 c-13 -12 -7 -23 13 -23 11 0 20 7 20 15 0 15 -21 21 -33
8z"/>
<path d="M5176 1844 c-10 -26 -7 -42 9 -48 12 -4 15 3 15 29 0 36 -13 47 -24
19z"/>
<path d="M5703 1800 c0 -25 2 -35 4 -22 2 12 2 32 0 45 -2 12 -4 2 -4 -23z"/>
<path d="M5751 1803 c0 -24 2 -43 7 -44 35 -5 82 -4 82 2 0 4 -17 9 -37 11
-35 3 -39 6 -44 38 l-6 35 -2 -42z"/>
<path d="M1628 1803 c7 -3 16 -2 19 1 4 3 -2 6 -13 5 -11 0 -14 -3 -6 -6z"/>
<path d="M4480 1791 c0 -11 4 -22 9 -25 4 -3 6 6 3 19 -5 30 -12 33 -12 6z"/>
<path d="M5066 1794 c-10 -27 -7 -34 19 -34 23 0 24 2 13 25 -13 29 -23 32
-32 9z"/>
<path d="M1577 1783 c-12 -11 -8 -23 8 -23 8 0 15 7 15 15 0 16 -12 20 -23 8z"/>
<path d="M4516 1758 c3 -5 10 -6 15 -3 13 9 11 12 -6 12 -8 0 -12 -4 -9 -9z"/>
<path d="M6055 1762 c-17 -2 -20 -9 -17 -42 2 -23 0 -40 -6 -40 -5 0 -12 -18
-14 -39 -3 -36 -1 -40 22 -43 24 -4 25 -2 21 35 -2 23 2 42 8 47 7 4 11 24 9
46 -2 33 -6 39 -23 36z"/>
<path d="M4455 1750 c3 -5 8 -10 11 -10 2 0 4 5 4 10 0 6 -5 10 -11 10 -5 0
-7 -4 -4 -10z"/>
<path d="M5864 1680 c9 -74 11 -80 33 -80 20 0 23 5 23 40 0 22 -4 40 -10 40
-5 0 -10 18 -10 40 0 35 -3 40 -23 40 -22 0 -22 -1 -13 -80z"/>
<path d="M6140 1724 c0 -35 25 -73 38 -59 4 4 1 10 -5 12 -8 3 -13 22 -13 44
0 21 -4 39 -10 39 -5 0 -10 -16 -10 -36z"/>
<path d="M1748 1723 c7 -3 17 -16 22 -29 6 -16 17 -24 33 -24 14 0 36 -12 51
-27 14 -14 29 -23 33 -19 11 11 -60 66 -80 62 -9 -2 -15 -1 -13 3 6 10 -31 41
-47 40 -9 0 -8 -2 1 -6z"/>
<path d="M5680 1703 c0 -12 -5 -23 -12 -25 -7 -3 -9 -11 -3 -24 8 -19 8 -19
13 1 2 11 9 23 14 26 7 4 7 13 -1 25 -10 18 -10 18 -11 -3z"/>
<path d="M5743 1697 c-7 -16 -13 -43 -13 -62 0 -36 13 -44 63 -37 24 4 27 8
27 43 0 32 -3 39 -20 39 -16 0 -20 -7 -20 -34 0 -63 -19 -49 -22 16 -3 59 -4
61 -15 35z"/>
<path d="M1547 1703 c-4 -6 5 -88 11 -108 1 -3 2 -9 2 -15 0 -5 14 -1 30 8 30
16 32 16 45 -2 14 -19 15 -18 23 4 10 26 -7 90 -24 90 -7 0 -15 -8 -20 -17 -6
-15 -8 -12 -13 12 -4 21 -13 31 -28 33 -11 2 -23 0 -26 -5z"/>
<path d="M1688 1673 c7 -3 16 -2 19 1 4 3 -2 6 -13 5 -11 0 -14 -3 -6 -6z"/>
<path d="M5200 1620 c0 -62 11 -75 32 -40 7 11 21 20 30 20 14 0 18 8 18 40
l0 40 -40 0 -40 0 0 -60z"/>
<path d="M5320 1640 c0 -22 5 -40 10 -40 6 0 9 -6 8 -12 -2 -7 4 -13 12 -13
11 0 16 14 18 53 3 50 2 52 -22 52 -24 0 -26 -4 -26 -40z"/>
<path d="M1505 1627 c-4 -10 -5 -21 -1 -24 10 -10 18 4 13 24 -4 17 -4 17 -12
0z"/>
<path d="M5600 1622 c0 -12 4 -22 9 -22 6 0 12 -17 14 -37 3 -24 3 -20 2 10
-2 49 -25 93 -25 49z"/>
<path d="M6215 1610 c-3 -5 -1 -10 5 -10 8 0 11 -15 8 -45 -2 -31 1 -46 11
-50 9 -4 11 0 7 11 -3 8 -6 36 -6 60 0 41 -11 57 -25 34z"/>
<path d="M1908 1603 c6 -2 12 -17 13 -31 0 -15 3 -21 6 -15 3 9 16 7 46 -10
23 -12 45 -26 48 -30 8 -11 47 -34 72 -43 9 -3 17 -13 17 -20 0 -8 5 -14 10
-14 28 0 1 30 -65 73 -41 27 -85 60 -97 73 -13 13 -32 23 -43 23 -11 0 -14 -3
-7 -6z"/>
<path d="M5504 1598 c-4 -7 -2 -14 4 -16 7 -2 12 -17 12 -33 0 -16 5 -29 10
-29 16 0 12 77 -5 83 -8 4 -18 1 -21 -5z"/>
<path d="M1360 1575 c0 -30 11 -32 33 -7 23 25 21 32 -8 32 -20 0 -25 -5 -25
-25z"/>
<path d="M5670 1560 c0 -22 2 -40 4 -40 2 0 6 18 8 40 2 22 0 40 -4 40 -5 0
-8 -18 -8 -40z"/>
<path d="M6183 1560 c0 -25 2 -35 4 -22 2 12 2 32 0 45 -2 12 -4 2 -4 -23z"/>
<path d="M4598 1553 c7 -3 16 -2 19 1 4 3 -2 6 -13 5 -11 0 -14 -3 -6 -6z"/>
<path d="M5280 1536 c0 -9 7 -16 16 -16 17 0 14 22 -4 28 -7 2 -12 -3 -12 -12z"/>
<path d="M5440 1530 c0 -5 5 -10 10 -10 6 0 10 5 10 10 0 6 -4 10 -10 10 -5 0
-10 -4 -10 -10z"/>
<path d="M1660 1485 c0 -36 18 -47 38 -22 13 16 -3 57 -23 57 -11 0 -15 -10
-15 -35z"/>
<path d="M5210 1480 c0 -22 -4 -40 -10 -40 -5 0 -10 -19 -9 -42 0 -24 3 -36 6
-28 4 8 17 23 30 34 17 13 21 22 14 29 -6 6 -11 28 -11 49 0 21 -4 38 -10 38
-5 0 -10 -18 -10 -40z"/>
<path d="M5763 1480 c0 -25 2 -35 4 -22 2 12 2 32 0 45 -2 12 -4 2 -4 -23z"/>
<path d="M5828 1465 c-4 -35 -13 -64 -23 -71 -19 -14 -20 -34 0 -34 8 0 15 6
15 14 0 8 5 16 11 18 6 2 9 29 7 68 l-3 65 -7 -60z"/>
<path d="M1180 1475 c-10 -12 -9 -16 4 -21 9 -3 16 -16 17 -28 0 -20 1 -20 10
2 6 15 5 30 -1 43 -13 23 -14 23 -30 4z"/>
<path d="M4720 1479 c0 -5 5 -7 10 -4 6 3 10 8 10 11 0 2 -4 4 -10 4 -5 0 -10
-5 -10 -11z"/>
<path d="M6160 1480 c0 -5 5 -10 10 -10 6 0 10 5 10 10 0 6 -4 10 -10 10 -5 0
-10 -4 -10 -10z"/>
<path d="M1511 1454 c0 -11 3 -14 6 -6 3 7 2 16 -1 19 -3 4 -6 -2 -5 -13z"/>
<path d="M980 1450 c0 -5 9 -10 21 -10 11 0 17 5 14 10 -3 6 -13 10 -21 10 -8
0 -14 -4 -14 -10z"/>
<path d="M1745 1450 c-3 -5 -1 -10 4 -10 6 0 11 5 11 10 0 6 -2 10 -4 10 -3 0
-8 -4 -11 -10z"/>
<path d="M6265 1451 c-3 -6 -2 -11 2 -11 5 0 7 -18 5 -40 -3 -32 -1 -40 12
-40 9 0 16 -4 16 -10 0 -5 23 -10 50 -10 28 0 50 5 50 10 0 6 -22 10 -50 10
l-50 0 -1 35 c-1 19 -2 40 -3 47 -1 15 -23 22 -31 9z"/>
<path d="M1063 1402 c-11 -42 1 -62 37 -62 22 0 27 16 8 23 -10 3 -10 7 -2 18
6 8 15 24 18 37 7 19 4 22 -22 22 -26 0 -31 -5 -39 -38z"/>
<path d="M1272 1420 c0 -14 2 -19 5 -12 2 6 2 18 0 25 -3 6 -5 1 -5 -13z"/>
<path d="M5700 1420 c0 -13 7 -20 20 -20 13 0 20 7 20 20 0 13 -7 20 -20 20
-13 0 -20 -7 -20 -20z"/>
<path d="M4754 1365 c5 -46 15 -72 17 -44 5 64 3 83 -9 87 -11 3 -12 -7 -8
-43z"/>
<path d="M1192 1355 c0 -16 2 -22 5 -12 2 9 2 23 0 30 -3 6 -5 -1 -5 -18z"/>
<path d="M4012 1362 c-8 -6 -8 -18 3 -47 8 -22 15 -38 15 -35 1 3 3 22 6 42 5
38 -4 52 -24 40z"/>
<path d="M4300 1366 c0 -2 11 -6 25 -8 13 -3 22 -1 19 3 -5 9 -44 13 -44 5z"/>
<path d="M4796 1345 c-4 -10 1 -15 14 -15 11 0 20 7 20 15 0 8 -6 15 -14 15
-8 0 -16 -7 -20 -15z"/>
<path d="M5123 1325 c0 -22 2 -30 4 -17 2 12 2 30 0 40 -3 9 -5 -1 -4 -23z"/>
<path d="M5593 1325 c0 -22 2 -30 4 -17 2 12 2 30 0 40 -3 9 -5 -1 -4 -23z"/>
<path d="M4080 1330 c0 -5 5 -10 10 -10 6 0 10 5 10 10 0 6 -4 10 -10 10 -5 0
-10 -4 -10 -10z"/>
<path d="M4376 1333 c-11 -11 -6 -23 9 -23 8 0 15 4 15 9 0 13 -16 22 -24 14z"/>
<path d="M4428 1323 c7 -3 16 -2 19 1 4 3 -2 6 -13 5 -11 0 -14 -3 -6 -6z"/>
<path d="M4071 1294 c0 -11 3 -14 6 -6 3 7 2 16 -1 19 -3 4 -6 -2 -5 -13z"/>
<path d="M4530 1291 c0 -11 40 -22 54 -14 5 4 1 10 -10 14 -27 11 -44 11 -44
0z"/>
<path d="M4665 1280 c3 -5 10 -10 16 -10 5 0 9 5 9 10 0 6 -7 10 -16 10 -8 0
-12 -4 -9 -10z"/>
<path d="M6140 1270 c0 -5 5 -10 10 -10 6 0 10 5 10 10 0 6 -4 10 -10 10 -5 0
-10 -4 -10 -10z"/>
<path d="M640 1249 c0 -15 5 -20 23 -17 27 4 26 19 -2 30 -17 6 -21 3 -21 -13z"/>
<path d="M960 1261 c0 -10 36 -21 44 -14 3 3 3 10 0 14 -7 12 -44 12 -44 0z"/>
<path d="M6142 1215 c2 -22 8 -39 13 -37 12 4 7 53 -7 67 -6 7 -8 -4 -6 -30z"/>
<path d="M5992 1220 c0 -14 2 -19 5 -12 2 6 2 18 0 25 -3 6 -5 1 -5 -13z"/>
<path d="M955 1210 c2 -14 5 -31 5 -37 0 -22 16 -14 28 12 10 22 9 25 -7 25
-11 0 -22 6 -25 13 -4 6 -4 1 -1 -13z"/>
<path d="M4670 1200 c0 -5 -7 -10 -16 -10 -8 0 -12 -4 -9 -10 3 -5 19 -10 35
-10 16 0 32 5 35 10 3 6 -1 10 -9 10 -9 0 -16 5 -16 10 0 6 -4 10 -10 10 -5 0
-10 -4 -10 -10z"/>
<path d="M560 1189 c0 -5 5 -7 10 -4 6 3 10 8 10 11 0 2 -4 4 -10 4 -5 0 -10
-5 -10 -11z"/>
<path d="M625 1190 c3 -5 8 -10 11 -10 2 0 4 5 4 10 0 6 -5 10 -11 10 -5 0 -7
-4 -4 -10z"/>
<path d="M4400 1184 c0 -8 9 -14 20 -14 11 0 20 4 20 9 0 5 -9 11 -20 14 -13
3 -20 0 -20 -9z"/>
<path d="M4775 1190 c-25 -5 -27 -7 -12 -13 26 -10 57 -9 57 2 0 15 -12 18
-45 11z"/>
<path d="M652 1171 c-10 -6 -9 -10 7 -14 14 -3 21 0 21 9 0 16 -9 18 -28 5z"/>
<path d="M910 1160 c0 -5 7 -10 15 -10 8 0 15 5 15 10 0 6 -7 10 -15 10 -8 0
-15 -4 -15 -10z"/>
</g>
</svg>
